<svg xmlns="http://www.w3.org/2000/svg" xmlns:xlink="http://www.w3.org/1999/xlink" width="1000" height="610" xmlns:v="https://vecta.io/nano"><style><![CDATA[.B{fill:#263238}.C{fill:#455a64}.D{fill:#fff}.E{fill:#ffbe9d}.F{opacity:.3}.G{fill:#e0e0e0}.H{fill:#008ad8}.I{fill:#b36b60}.J{fill:#eb996e}.K{fill:#fafafa}.L{fill:#ebebeb}]]></style><defs><clipPath id="A"><path d="M0 0h1000v610H0z"/></clipPath><path id="B" d="M874.075 360.598c13.067 6.769 23.085 18.411 30.281 31.251s11.856 26.9 16.445 40.884l4.033 72.077c-15.205-25.864-27.4-56.26-30.709-86.085l10.118-.9c-6.783-1.04-12.469-5.956-16.1-11.771s-5.486-12.554-7.3-19.166l12.341 1.838c-9.744-6.575-16.586-16.647-19.109-28.128z"/><path id="C" d="M194.913 558.609l-7.624 28.686s26.605 17.385 25.65 22.8l-56.16-12.825 10.046-45.2z"/></defs><g clip-path="url(#A)"><g fill="#f5f5f5"><path d="M600.003 606.921a1459.2 1459.2 0 0 0-171-1.268l-2.608 1.1c23.969 14.521 54.151 10.659 81.981 14.364 16.744 2.237 33.046 7.367 49.876 8.721s35.112-1.681 47.239-13.424a6.63 6.63 0 0 0 2.522-4.56c-.045-3.465-4.548-4.705-8.01-4.933zm306.406 16.216c-5.344-3.106-11.756-3.605-17.927-4.033l-33.83-2.323c-9.234-.641-18.7-1.254-27.574 1.311s-17.257 9.035-19.423 18.026v.3c16.031 3.278 32.134 6.584 48.451 7.439s33.075-.827 48.151-7.125c3.178-1.34 6.712-3.506 6.854-6.954.071-2.879-2.251-5.23-4.702-6.641zm-651.844-18.14c-5.358-3.107-11.771-3.605-17.941-4.033l-33.83-2.323c-9.22-.641-18.682-1.254-27.574 1.325s-17.243 9.02-19.423 18.012v.3c16.031 3.292 32.134 6.583 48.451 7.438s33.06-.827 48.137-7.125c3.178-1.339 6.712-3.52 6.854-6.954.1-2.883-2.237-5.215-4.674-6.64z"/></g><g class="G"><path d="M83.239 275.221l-12.127 3.719s3.121 10.189-7.41 13.609c-4.125 1.426-8.701.082-11.4-3.349a11.4 11.4 0 0 1-2.156-10.079c1.026-4.019 4.574-8.55 13.2-9.562l-8.398-27.328-11.984 3.677 4.975 16.013s-15.49 9.5-9.8 28.03c5.444 17.727 22.6 16.972 29.412 14.877 5.124-1.592 22.467-8.275 15.688-29.607zm-29.988-38.633l-12.166 3.731-3.485-11.363 12.166-3.731zm273.986 243.977l-6.84 2.095c.497 1.571.332 3.276-.456 4.722a6.06 6.06 0 0 1-3.719 2.945c-2.327.809-4.911.056-6.439-1.877a6.43 6.43 0 0 1-1.211-5.7c.584-2.28 2.594-4.788 7.439-5.386l-4.717-15.419-6.857 2.147 2.85 9.035c-5.193 3.419-7.457 9.889-5.529 15.8 3.064 9.975 12.74 9.576 16.573 8.393 2.924-.97 12.714-4.728 8.906-16.755zm-16.916-21.805l-6.866 2.106-1.964-6.404 6.866-2.106zM886.886 60.973l7.125-.37c-.089-1.643.491-3.252 1.608-4.46s2.675-1.913 4.32-1.953a5.8 5.8 0 0 1 5.857 3.406 6.4 6.4 0 0 1-.228 5.814c-1.112 2.052-3.662 4-8.55 3.392l.812 16.117 7.125-.356-.584-9.434a13.81 13.81 0 0 0 9.22-13.979c-.527-10.445-9.975-12.4-14.022-12.2-3.05.154-13.452 1.423-12.683 14.023zm11.056 25.28l7.175-.359.335 6.691-7.175.359zm-505.166 95.542l7.125-.356a6.08 6.08 0 0 1 1.598-4.464 6.09 6.09 0 0 1 4.316-1.963 5.8 5.8 0 0 1 5.786 3.406 6.44 6.44 0 0 1-.214 5.814c-1.112 2.066-3.677 4-8.55 3.406l.812 16.1 7.127-.349-.456-9.434a13.81 13.81 0 0 0 9.22-13.979c-.527-10.445-9.975-12.4-14.022-12.2-3.107.154-13.509 1.422-12.742 14.019zM302.22 91.252l7.175-.359.335 6.691-7.175.359z"/></g><g class="L"><path d="M981.008 179.488l-10.787 6.726s5.6 9.049-3.705 15.034a10.25 10.25 0 0 1-11.9-.356 11.4 11.4 0 0 1-4.646-9.263c0-4.147 2.28-9.362 10.346-12.583l-15.022-24.325-10.673 6.6 8.807 14.25s-12.569 13.11-2.38 29.6c9.747 15.775 26.163 10.7 32.22 6.954 4.634-2.869 19.711-13.742 7.74-32.637zm-38.772-29.759l-10.829 6.693-6.252-10.114 10.829-6.693z"/></g><g class="K"><path d="M323.292 275.904l7.752 5.7s4.788-6.512 11.642-1.653a7.78 7.78 0 0 1 3.121 8.465 8.62 8.62 0 0 1-5.159 5.871c-2.85 1.2-7.239 1.055-11.785-3.705l-12.824 17.471 7.667 5.629 7.524-10.232s12.825 5.13 21.5-6.726c8.336-11.4.1-21.375-4.275-24.624-3.331-2.452-15.245-9.976-25.163 3.804zm-9.916 35.736l7.775 5.711-5.34 7.27-7.775-5.711zM735.222 77.001l7.752 5.7s4.774-6.512 11.628-1.653c2.746 1.862 4.005 5.263 3.135 8.465a8.65 8.65 0 0 1-5.173 5.871c-2.85 1.211-7.239 1.054-11.785-3.705l-12.825 17.47 7.652 5.7 7.524-10.246s12.825 5.13 21.5-6.712c8.336-11.4.114-21.375-4.275-24.638-3.301-2.466-15.23-10.032-25.133 3.748zm-9.912 35.686l7.775 5.711-5.34 7.27-7.775-5.711z"/></g><path d="M974.967 610.559c0 .214-214.436.37-478.9.37s-478.933-.157-478.933-.37 214.379-.371 478.933-.371l478.9.371z" class="B"/><path d="M143.1 96.127H60.934v79.616h28.187l14.207 15.818 11.728-15.818H143.1z" class="D"/><path d="M143.101 96.128v5.7l.071 16.074.142 57.913v.285h-28.258l.242-.114-11.713 15.742-.228.313-.271-.285-14.25-15.818.242.114h-28.5V95.828h.285l59.694.143h16.459l-16.573.285-59.509.142.285-.285v79.615l-.328-.328h28.373l.085.114 14.25 15.818h-.5l11.742-15.818.085-.114h28.2l-.285.285.143-57.727v-20.42a6.03 6.03 0 0 1 .117-1.41z" class="B"/><g class="H"><path d="M88.508 125.967h7.31a6.22 6.22 0 0 1 1.864-4.469c1.2-1.177 2.826-1.816 4.506-1.773a5.9 5.9 0 0 1 5.7 3.776 6.54 6.54 0 0 1-.513 5.914c-1.24 2.038-3.962 3.89-8.878 3.035v16.53h7.225v-9.719a14.11 14.11 0 0 0 10.116-13.778c0-10.673-9.576-13.153-13.666-13.153-3.118 0-13.806.755-13.664 13.637zm9.99 26.334h7.325v6.84h-7.325z"/></g><use xlink:href="#B" class="C"/><g class="F"><use xlink:href="#B"/></g><g class="C"><path d="M927.082 521.696s32.989-39.487 32.6-77.193h-13.316s14.478-9.519 13.338-14.849-1.539-25.522-1.539-25.522l-12.184 3.05s9.148-4.574 10.289-11.8-2.665-40.755-2.665-40.755-14.848 15.675-19.423 31.607-16.573 34.656-13.039 83.406 5.939 52.056 5.939 52.056zm-16.726 3.734s-35.754-23.812-43.691-54.151l10.716-2.921s-13.723-4.489-13.965-9.02-4.36-20.848-4.36-20.848l10.46-.214s-8.351-1.682-10.844-7.253-6.769-33.345-6.769-33.345 15.419 9.234 22.544 21.119 20.891 24.225 28.728 64.2 7.181 42.433 7.181 42.433z"/></g><path d="M944.585 389.055a1.57 1.57 0 0 1 0 .427 7.97 7.97 0 0 1-.228 1.225l-.926 4.717-1.425 7.453-1.852 9.89c-1.34 7.339-2.85 16.089-4.275 25.821l-4.275 31.778c-1.425 11.301-2.323 22.088-3.121 31.906l-1.724 26.121-.456 10.061-.285 7.581-.185 4.8v1.24a1.98 1.98 0 0 1 0 .427 2.44 2.44 0 0 1 0-.427v-6.04c0-2.038 0-4.646.171-7.6s.171-6.341.356-10.061c.285-7.453.827-16.316 1.553-26.163s1.767-20.62 3.064-31.935 2.85-22.045 4.275-31.792 3.035-18.525 4.446-25.821l1.952-9.861c.527-2.893 1.112-5.4 1.582-7.439l1.055-4.688.285-1.211c-.011-.136-.006-.274.013-.409z" class="B"/><path d="M931.66 545.877s30.2-34.2 39.573-54.963l-7.123-3.037c5.13.855 10.388-1.354 14.364-4.7s6.9-7.752 9.761-12.084l-9.319-1.582c8.565-2.449 15.861-8.097 20.378-15.775-11.016 1.81-20.962 7.852-29.17 15.4-6.497 6.244-12.398 13.081-17.627 20.42a70.11 70.11 0 0 0-6.8 11.4c-5.13 10.421-14.051 32.34-14.037 44.921z" class="C"/><g class="B"><path d="M866.181 417.57a2.52 2.52 0 0 1 .214.313l.513.969 1.952 3.748c1.7 3.249 4.061 8.009 6.9 13.922 5.7 11.828 13.053 28.386 20.292 47.025s12.825 35.91 16.644 48.45l4.275 14.934 1.083 4.076.257 1.069a1.42 1.42 0 0 1 .071.371 1.63 1.63 0 0 1-.142-.342l-.328-1.054-1.211-4.047-4.5-14.849c-3.876-12.526-9.619-29.712-16.829-48.365s-14.535-35.226-20.079-47.1l-6.669-14.022-1.824-3.8-.456-1a1.41 1.41 0 0 1-.163-.298zm62.914 143a15.31 15.31 0 0 1 .171-2.494l.969-6.712a121.62 121.62 0 0 1 15.747-41.71c1.425-2.437 2.779-4.375 3.719-5.7a14.49 14.49 0 0 1 1.51-1.981 16.55 16.55 0 0 1-1.268 2.138c-.869 1.34-2.081 3.32-3.506 5.786a135.19 135.19 0 0 0-15.675 41.539c-.555 2.85-.954 5.073-1.182 6.655-.094.838-.256 1.668-.484 2.48z"/></g><g class="H"><path d="M889.252 552.505h66.092v13.481h-66.092z"/><path d="M949.045 565.985l-7.153 45.344h-39.928l-6.67-45.344z"/></g><path d="M893.299 565.986c0-.2 12.512-.371 27.93-.371l27.916.371c0 .2-12.5.37-27.916.37s-27.93-.171-27.93-.37z" class="B"/><g class="C"><path d="M77.392 493.837c15.509-15.498 38.033-21.681 59.281-16.274a107.9 107.9 0 0 1-59.979 18.739M97.5 422.586c-2.466-17.476 4.27-37.051 17.399-49.876.442 17.314-6.869 36.794-17.4 49.875"/><path d="M87.04 455.631a93.31 93.31 0 0 1 42.85-40.941 58.91 58.91 0 0 1-43.007 41.127m-2.009 6.185c10.559.285 21.233-.086 31.436-2.85s19.95-7.895 26.762-15.974a105.13 105.13 0 0 0-58.084 17.8m5.245-19.953c-5.358-20.078-14.25-33.958-29.925-45.2-2.497 20.376 10.192 39.542 29.925 45.2m-39.83 34.614c-.072-11.971 7.045-22.817 18.055-27.517-.884 10.36-9.02 22.358-18.055 27.517m-5.045-16.915c-1.494-17.162-12.807-31.899-29-37.777 3.648 16.772 13.352 30.738 29 37.777m7.614 30.025c-3.734-5.315-9.8-8.636-16.088-10.274s-12.83-1.794-19.342-1.924c8.959 9.719 21.72 15.035 34.93 14.549m8.034 40.443C35.958 523.964 9.689 536.406 0 560.2c21.988-4.175 43.662-13.937 60.506-28.657m24.112-14.906c-3.648 10.787-2.95 23.84 5.173 33.132a39.53 39.53 0 0 0-5.173-33.132m14.264-5.957c1.194 14.143 9.695 26.633 22.415 32.932.587.377 1.304.496 1.981.328 1-.4 1.083-1.753.955-2.85-1.582-13.837-11.828-27.2-25.351-30.453m9.305-1.367a33.32 33.32 0 0 0 48.636.257c-15.461-1.7-33.3-2.85-48.636-.257"/></g><g class="B"><path d="M110.51 385.692a1.12 1.12 0 0 1-.142.442c-.181.428-.338.866-.47 1.311l-1.867 5-2.85 7.937-1.8 4.973-1.924 5.586c-2.736 7.823-5.786 17.228-9.063 27.688s-6.612 22.045-9.975 34.2-6.2 23.926-8.678 34.6-4.475 20.363-5.971 28.5l-1.1 5.814c-.345 1.838-.613 3.577-.883 5.2l-1.425 8.336-.812 5.287-.228 1.425c-.02.153-.048.306-.085.456a2.34 2.34 0 0 1 0-.47l.171-1.425.7-5.287c.3-2.266.741-5.116 1.268-8.365l.841-5.216c.3-1.853.684-3.776 1.055-5.814 1.425-8.18 3.477-17.855 5.857-28.5s5.344-22.416 8.636-34.642 6.74-23.783 9.975-34.2 6.4-19.85 9.191-27.674c.7-1.952 1.425-3.8 1.967-5.572s1.268-3.406 1.838-4.959l3.007-7.895c.869-2.195 1.425-3.8 1.967-4.973l.527-1.283c.06-.177.152-.341.271-.485z"/><path d="M25.594 429.911c.093.072.179.153.257.242l.741.784 2.75 3.078a107.97 107.97 0 0 1 9.106 12.127 81.68 81.68 0 0 1 9.491 20.364 197.99 197.99 0 0 1 5.7 26.947c3.149 19.28 7.011 36.537 9.8 49.035l3.335 14.777.9 4.033.214 1.04c.023.123.023.248 0 .371a1.8 1.8 0 0 1-.114-.356l-.271-1.04-1-3.99-3.446-14.752c-2.85-12.455-6.826-29.726-9.975-49.021a203 203 0 0 0-5.7-26.89c-2.18-7.156-5.325-13.982-9.348-20.289a114.37 114.37 0 0 0-8.921-12.212c-1.14-1.425-2.052-2.423-2.665-3.135l-.7-.827c-.057-.092-.109-.187-.154-.286zm87.21 78.704c-.18.057-.367.091-.556.1l-1.6.185-1.154.114-1.425.2-3.32.556-1.924.385-2.052.527c-1.425.314-2.85.841-4.489 1.311a66.63 66.63 0 0 0-9.79 4.275c-3.113 1.75-6.052 3.793-8.778 6.1-1.178 1.017-2.301 2.097-3.363 3.235-.947.969-1.836 1.992-2.665 3.064a30.19 30.19 0 0 0-1.967 2.722 17.99 17.99 0 0 0-1.42 2.153l-.827 1.425a2.06 2.06 0 0 1-.313.47 1.15 1.15 0 0 1 .214-.527l.727-1.425a18.25 18.25 0 0 1 1.269-2.213 27.63 27.63 0 0 1 1.924-2.85 34.79 34.79 0 0 1 2.636-3.164c1.061-1.162 2.183-2.265 3.363-3.306 2.733-2.36 5.698-4.437 8.849-6.2a63.37 63.37 0 0 1 9.9-4.275c1.6-.47 3.092-.969 4.532-1.283l2.081-.484 1.952-.356c1.226-.242 2.351-.356 3.349-.47l1.425-.157h1.154l1.625-.071a2.06 2.06 0 0 1 .641-.043zm4.403-78.334a7.51 7.51 0 0 1-1.111 1.069l-3.178 2.765-10.645 8.935-10.759 8.807-3.292 2.608a7.86 7.86 0 0 1-1.268.9 7.51 7.51 0 0 1 1.111-1.069l3.192-2.765 10.631-8.935 10.759-8.807 3.292-2.608a7.87 7.87 0 0 1 1.268-.9zm3.805 20.449c0 .157-8.08 2.693-18.126 5.7s-18.254 5.258-18.3 5.1 8.066-2.693 18.126-5.7 18.257-5.252 18.3-5.1z"/><path d="M91.044 442.536a5.2 5.2 0 0 1-.841-1.154l-2.138-3.263c-1.824-2.75-4.4-6.5-7.439-10.488s-5.985-7.453-8.151-9.975l-2.579-2.936c-.329-.346-.63-.717-.9-1.111a5.85 5.85 0 0 1 1.069.955c.67.641 1.6 1.61 2.722 2.85a142.1 142.1 0 0 1 8.308 9.861 129.1 129.1 0 0 1 7.31 10.616l2 3.363c.25.408.465.837.641 1.282zm-28.2 11.4a26.72 26.72 0 0 1-1.9 3.135l-4.56 7.553-4.161 7.781a27.61 27.61 0 0 1-1.72 3.231 19.11 19.11 0 0 1 1.34-3.42c.926-2.066 2.323-4.888 4.033-7.895 1.445-2.578 3.019-5.081 4.717-7.5a20.25 20.25 0 0 1 2.251-2.885zm-9.634 35.369a43.76 43.76 0 0 1-4.133-1.81c-2.537-1.14-6.071-2.636-10.075-4.033s-7.7-2.437-10.388-3.135a41.8 41.8 0 0 1-4.361-1.154 6.23 6.23 0 0 1 1.211.128c.77.114 1.881.328 3.249.627a89.06 89.06 0 0 1 10.488 2.978 92.44 92.44 0 0 1 10.061 4.2c1.24.627 2.237 1.154 2.85 1.539a6.83 6.83 0 0 1 1.098.66zm7.552 42.295a2.32 2.32 0 0 1-.5.171l-1.425.371-5.4 1.254a179.26 179.26 0 0 0-17.627 4.617 77.5 77.5 0 0 0-16.459 7.737l-4.532 3.149a14.9 14.9 0 0 1-1.639 1.211 2.76 2.76 0 0 1 .371-.385l1.126-1.012a48.91 48.91 0 0 1 4.446-3.32 72.14 72.14 0 0 1 16.487-7.937 147.23 147.23 0 0 1 17.741-4.5l5.429-1.069a15.59 15.59 0 0 1 1.982-.287zm27.489 10.431c-.157 0-1.126-5.7-2.152-12.725s-1.738-12.826-1.582-12.826 1.126 5.7 2.166 12.711 1.739 12.811 1.568 12.84zm28.586-10.389a30.26 30.26 0 0 1-2.582-3.049l-6.1-7.453-6.3-7.353c-.921-.965-1.777-1.988-2.565-3.064a3.79 3.79 0 0 1 .826.713l2.052 2.08 6.441 7.2 5.985 7.581 1.7 2.38a3.89 3.89 0 0 1 .543.965z"/></g><path d="M41.197 558.162v14.122h3.52l12.554 39.63h27.845l12.17-39.245 4.7-.385v-14.122z" class="H"/><g class="B"><path d="M99.637 572.668c0 .171-12.3.3-27.46.3s-27.46-.128-27.46-.3 12.3-.285 27.46-.285l27.46.285zm20.022-90.844c-.58.207-1.176.369-1.781.484l-4.888 1.169c-4.118 1.026-9.776 2.565-15.9 4.631s-11.585 4.275-15.476 5.928l-4.62 2.01a10.4 10.4 0 0 1-1.71.7 10.32 10.32 0 0 1 1.61-.9c1.055-.556 2.608-1.311 4.546-2.195a157.79 157.79 0 0 1 15.447-6.1 159.78 159.78 0 0 1 16-4.475c2.08-.47 3.762-.8 4.945-1a9.48 9.48 0 0 1 1.824-.257z"/></g><g class="K"><path d="M90.389 594.685c0 .157-8.621.285-19.252.285s-19.266-.128-19.266-.285 8.621-.3 19.266-.3 19.252.129 19.252.3zm1.083-3.278c0 .157-9.134.3-20.406.3s-20.42-.142-20.42-.3 9.134-.3 20.42-.3 20.406.129 20.406.3z"/></g><path d="M841.229 592.369l.613-15.761 27.446-1.026-.413 19.266-9.975 6.028z" class="I"/><path d="M869.473 591.272v1.8s30.467 12.583 30.738 18.4l-60.748-.9 1.126-20.192c9.044 4.468 19.581 4.793 28.884.892z" class="C"/><g opacity=".6" class="D"><path d="M846.645 596.915c-1.229.359-1.987 1.591-1.753 2.85a2.38 2.38 0 0 0 2.764 1.767 2.61 2.61 0 0 0 1.838-2.978 2.48 2.48 0 0 0-3.078-1.525"/></g><g opacity=".6" class="D"><path d="M839.462 610.566l.271-4.859 58.126 2.636s2.679 1.211 2.351 3.121z"/></g><g class="B"><path d="M869.673 593.252c0 .285-1.425.4-2.964 1.339s-2.28 2.166-2.551 2.038.2-1.824 2.009-2.921 3.577-.726 3.506-.456zm6.341 2.725c0 .285-1.24.77-2.266 2.009s-1.325 2.565-1.625 2.551-.456-1.7.841-3.221 3.036-1.626 3.05-1.339zm3.505 7.678c-.271 0-.67-1.425.114-3.05s2.195-2.237 2.309-1.981-.755 1.1-1.425 2.437-.713 2.527-.998 2.594z"/></g><path d="M804.521 557.2l.427 47.139 21.731-1.567 4.774-45.914z" class="I"/><path d="M827.421 593.523s-15.276 10.6-22.7 1.425l-1.924 4.432-8.621 31.621a4.19 4.19 0 0 0 6.9 4.232c6.284-5.843 29.27-27.446 29.042-30.367l-.1-7.766c-.036-1.626-1.066-3.063-2.594-3.62z" class="C"/><g opacity=".6" class="D"><path d="M797.382 636.359l32.78-34.2v1.7c.171 1.838-.641 2.565-1.539 3.748-2.651 3.491-9.975 11.315-27.375 27.631-1.023.956-2.45 1.35-3.819 1.055z"/></g><g opacity=".6" class="D"><path d="M825.312 597.172a2.42 2.42 0 0 0-.713 3.235 2.51 2.51 0 0 0 3.292.712 2.38 2.38 0 0 0 .399-3.268 2.38 2.38 0 0 0-3.249-.532"/></g><g class="B"><path d="M806.801 618.876a12.35 12.35 0 0 0-3.591-3.121c-2.408-1.211-4.674-.641-4.731-.9s.485-.4 1.425-.527a6.7 6.7 0 0 1 6.427 3.092c.513.828.57 1.412.47 1.456zm-2.935 5.342a35.38 35.38 0 0 0-3.634-1.724c-2.109-.641-3.947-.257-4-.513s1.853-1.054 4.275-.328 3.572 2.465 3.359 2.565zm8.392-12.212c-.185.2-2.209-1.824-5.415-3.021a40.1 40.1 0 0 0-6.1-1.425c0-.214 2.992-.77 6.427.57s5.288 3.776 5.088 3.876zm.713-9.619c-.114.242-2.38-.684-5.33-.8s-5.3.584-5.387.328a8.38 8.38 0 0 1 5.429-1.2c3.165.133 5.488 1.444 5.288 1.672z"/><path d="M805.96 601.517a3.3 3.3 0 0 1 .228-1.511 10.68 10.68 0 0 1 1.952-3.676 4.8 4.8 0 0 1 2.437-1.824 1.74 1.74 0 0 1 1.81.7 2.71 2.71 0 0 1 .3 1.9c-.752 2.72-3.312 4.536-6.128 4.346a6.87 6.87 0 0 1-6.014-4.66 2.28 2.28 0 0 1 .257-1.924c.446-.557 1.196-.769 1.867-.527a5.83 5.83 0 0 1 2.408 1.824 11.49 11.49 0 0 1 2.166 3.548c.222.444.348.929.371 1.425a19.17 19.17 0 0 0-3.021-4.6 5.4 5.4 0 0 0-2.123-1.539.9.9 0 0 0-1.026.285c-.212.39-.243.853-.086 1.268a6.1 6.1 0 0 0 5.258 3.976c2.374.164 4.547-1.33 5.244-3.605a1.98 1.98 0 0 0-.143-1.339c-.219-.327-.616-.485-1-.4a4.4 4.4 0 0 0-2.095 1.511 15.52 15.52 0 0 0-2.665 4.831zm70.838-284.561l.47 5.2 12.683 22.729s5.7 34.2 2.665 57c-3.733 28.244-8.55 69.113-10.246 88.693-1.012 11.571-11.229 97.058-11.229 97.058l-30.894-.371 2.038-110.467c.313-13.723-.8-72.847-.8-72.847l-1.311-78.49 38.861-9.73"/><path d="M831.539 588.764l9.8-190.382 5.786-73.445-43.673-11.557-1.567 9.077s-15.96 39.359-15.419 50.9l5.529 115.426 10.047 99.466z"/></g><g class="C"><path d="M843.096 331.406c-.078.23-.121.47-.128.712 0 .57-.1 1.254-.185 2.081l-.427 7.638c-.271 6.455-.47 15.39-.613 25.237l-.4 25.237c0 3.135-.143 5.7-.185 7.638v2.081a2.57 2.57 0 0 0 0 .741 3.12 3.12 0 0 0 .114-.727c0-.556.114-1.24.185-2.066.143-1.81.285-4.418.427-7.652.285-6.455.47-15.376.627-25.237l.4-25.237c0-3.135.128-5.7.171-7.638v-2.08a4 4 0 0 0 .014-.728zm-49.876 17.742a4.17 4.17 0 0 0 1.154.442 7.89 7.89 0 0 0 1.425.356 15.05 15.05 0 0 0 1.909.328 23.9 23.9 0 0 0 5.016.085 25.65 25.65 0 0 0 11.571-3.876 24.09 24.09 0 0 0 3.962-3.092 16.84 16.84 0 0 0 1.325-1.425 9.97 9.97 0 0 0 .9-1.126c.47-.655.7-1.026.656-1.055s-1.154 1.325-3.249 3.178a27.01 27.01 0 0 1-3.962 2.85 29.93 29.93 0 0 1-5.429 2.494 30.7 30.7 0 0 1-5.843 1.282 27.28 27.28 0 0 1-4.9.071c-2.868-.142-4.535-.655-4.535-.512zm79.801-14.721a8.55 8.55 0 0 0 1.425 2.85 23.1 23.1 0 0 0 11.814 9.177 8.68 8.68 0 0 0 3.078.655 37.58 37.58 0 0 1-9.277-4.874 36.95 36.95 0 0 1-7.04-7.808zm-19.722 168.95a20.62 20.62 0 0 0 3.819-1.71 90.21 90.21 0 0 0 8.735-5.03c3.32-2.18 6.2-4.275 8.208-5.857a18.17 18.17 0 0 0 3.135-2.765c-1.213.688-2.371 1.469-3.463 2.337-2.095 1.425-5 3.505-8.294 5.629s-6.356 3.919-8.55 5.216a26.52 26.52 0 0 0-3.59 2.18z"/></g><path d="M820.254 199.194l34.884-2.722 13.466 9.7-8.422 80.3 11.144 39.359h-62.427l-8.037-72.362z" class="K"/><g class="C"><path d="M780.395 332.332c-8.963-6.284-24.225-18.625-25.65-25.65-1.91-9.163 25.194-82.081 30.538-88.18s30.581-17.927 30.581-17.927l1.425-2.294c1.525-2.48 3.819-7.481 6.726-7.481l.413 3.491.542 7.581c.67 3.933 3.62 22.016 6.94 31.35a82.4 82.4 0 0 1 4.688 26.933l-.142 98.141c-1.14 10.688-5.9 31.35-5.9 31.35h0s-37.606-12.383-46.3-31.863c-3.776-8.55-3.833-25.494-3.833-25.494M926.83 290.08l-22.8-64.211c-4.731-13.424-14.806-16.6-14.806-16.6l-23.786-8.964c-.955-3.648-5.472-6.712-8.977-7.7l-2.252-1-2.593 3.42s5.4 4.9 6.17 9.861c.428 2.85 2.024 13.908-.328 21.2a88.56 88.56 0 0 0-4.147 23.356c-.684 16.345-1.425 43.434.641 53.039 3.05 14.136 12.355 82.523 12.355 82.523s21.375-14.165 26.634-21.375c6.327-8.55 4.161-24.781-1.838-41.254-.57-1.567.285 1.61 0 0a10.4 10.4 0 0 0 1.867.656c12.512 2.85 16.744 5.9 29.455-4.945s4.405-28.006 4.405-28.006z"/></g><g class="B"><path d="M815.693 211.548c0 .1-1.7.57-4.417 1.425-7.103 2.321-13.854 5.606-20.064 9.761-2.394 1.582-3.819 2.651-3.89 2.565.266-.327.573-.619.912-.869.613-.527 1.539-1.24 2.707-2.081a65.1 65.1 0 0 1 9.676-5.786c3.385-1.643 6.903-2.997 10.517-4.047 1.425-.4 2.522-.67 3.32-.827a4.89 4.89 0 0 1 1.24-.143zm75.241 10.417a21.24 21.24 0 0 1-2.85-1.867l-6.954-4.275-7.353-3.563a21.22 21.22 0 0 1-3.121-1.425 14.15 14.15 0 0 1 3.292.955 54.44 54.44 0 0 1 7.51 3.406 53.86 53.86 0 0 1 6.9 4.5 14.27 14.27 0 0 1 2.576 2.269zm-72.191 102.858c.058.473.058.952 0 1.425a9.66 9.66 0 0 1-.228 1.61 16.02 16.02 0 0 1-.484 2.095 17.29 17.29 0 0 1-.884 2.465 23.42 23.42 0 0 1-1.325 2.693 27.29 27.29 0 0 1-4.275 5.429 27.69 27.69 0 0 1-5.515 4.09 20.08 20.08 0 0 1-2.722 1.268c-1.478.593-3.017 1.023-4.588 1.283a9.15 9.15 0 0 1-1.61.185 5.7 5.7 0 0 1-1.425 0c0-.143 1.966-.185 4.973-1.1a16.6 16.6 0 0 0 2.394-.884c.905-.372 1.785-.8 2.636-1.282a26.55 26.55 0 0 0 9.505-9.305 26.98 26.98 0 0 0 1.354-2.608 18.74 18.74 0 0 0 .926-2.366c1.04-3.046 1.125-5.026 1.268-4.998zm-29.798-86.845c-.918-2.691-1.623-5.45-2.109-8.251a53.56 53.56 0 0 1-1.425-8.393 56.4 56.4 0 0 1 2.109 8.251 55.57 55.57 0 0 1 1.425 8.393zm107.988-18.464c-1.692 2.159-3.258 4.414-4.688 6.755a74.67 74.67 0 0 0-3.306 7.538 6.88 6.88 0 0 1 .442-2.408 25.31 25.31 0 0 1 2.28-5.444 25.65 25.65 0 0 1 3.448-4.8 7.19 7.19 0 0 1 1.824-1.639zm20.092 70.865a10.45 10.45 0 0 1-1.339-1.425l-1.539-1.667-2.109-2.123a70.8 70.8 0 0 0-5.871-5.1c-2.51-1.938-5.143-3.713-7.88-5.315a75.66 75.66 0 0 0-8.55-4.19c-2.398-.984-4.848-1.836-7.339-2.551l-2.85-.755-2.209-.513a10.3 10.3 0 0 1-1.867-.47 10.65 10.65 0 0 1 1.924.214 22.24 22.24 0 0 1 2.237.4l2.85.684a61.93 61.93 0 0 1 7.467 2.423 68.79 68.79 0 0 1 8.636 4.175 70.66 70.66 0 0 1 7.937 5.415 62.41 62.41 0 0 1 5.814 5.258c.8.77 1.425 1.553 2.052 2.209a13.8 13.8 0 0 1 1.425 1.739 11.6 11.6 0 0 1 1.211 1.6z"/><path d="M887.129 244.039a131.4 131.4 0 0 1 1.881 13.124c.628 4.377 1.032 8.782 1.212 13.2a130.57 130.57 0 0 1-1.881-13.124 129.76 129.76 0 0 1-1.211-13.2zm4.218 78.561c-.556-.273-1.091-.588-1.6-.941a42.72 42.72 0 0 1-4.033-3.035 31.07 31.07 0 0 1-5.116-5.472 32.64 32.64 0 0 1-4.275-8.165 45.8 45.8 0 0 1-1.425-4.56l-.827-4.275c-.327-2.429-1.352-4.711-2.95-6.569a13.61 13.61 0 0 0-4-2.85 10.41 10.41 0 0 1-1.667-.755 8.55 8.55 0 0 1 1.767.527 12.14 12.14 0 0 1 4.275 2.765 13 13 0 0 1 3.221 6.769l.841 4.275a33.86 33.86 0 0 0 1.425 4.489 31.45 31.45 0 0 0 9.021 13.523c1.567 1.425 2.935 2.437 3.876 3.164a8.48 8.48 0 0 1 1.467 1.11z"/></g><path d="M803.195 322.3s-13.894 5.971-9.362 13.3c3.107 5.044 9.548 9.576 9.548 9.576 6.484-3.734 11.058-7.638 14.25-14.834z" class="I"/><g class="B"><path d="M780.396 332.333a17.54 17.54 0 0 0 2.708 1.425 22.8 22.8 0 0 0 8.292 2.037l-.2.171c.465-2.858 1.713-5.532 3.605-7.724a24.3 24.3 0 0 1 8.279-6.284h0c.817-.533 1.508-1.238 2.023-2.066.577-.809.867-1.787.827-2.779-.261-1.014-.782-1.942-1.511-2.693-.742-.825-1.568-1.57-2.465-2.223h0a35.4 35.4 0 0 1-3.634-5 47.19 47.19 0 0 0-3.406-5.358l-1.71-2.123a23.17 23.17 0 0 1-1.624-2.209l-2.936-4.446v-.128a81.08 81.08 0 0 1-.285-9.405l.5-8.55.883-14.336.627-9.5.2-2.551a5.41 5.41 0 0 1 .1-.883c.035.293.035.59 0 .883q0 .969-.085 2.565l-.428 9.5-.741 14.364-.456 8.55a83.29 83.29 0 0 0 .328 9.32v-.149l2.921 4.4a49.27 49.27 0 0 0 1.6 2.166l1.738 2.152c1.267 1.722 2.41 3.531 3.42 5.415 1.051 1.737 2.248 3.381 3.577 4.916h0c.933.684 1.788 1.468 2.551 2.337.81.837 1.381 1.875 1.653 3.007.09.588.016 1.19-.214 1.739-.188.498-.427.976-.712 1.425a6.94 6.94 0 0 1-2.252 2.251h0a24.4 24.4 0 0 0-8.122 6.071c-1.843 2.118-3.083 4.692-3.591 7.453v.185h-.171a22.13 22.13 0 0 1-8.393-2.237 15.98 15.98 0 0 1-1.981-1.2c-.325-.126-.631-.294-.912-.5z"/><path d="M788.831 293.629c0 .1-.912-.086-2.337-.114a15.09 15.09 0 0 0-5.43.94c-1.73.65-3.324 1.617-4.7 2.85l-1.682 1.639c.319-.756.806-1.429 1.425-1.967a12.98 12.98 0 0 1 10.488-3.976 5.22 5.22 0 0 1 2.236.628zm40.114 53.225a3.52 3.52 0 0 0-1.667 1.51 2.75 2.75 0 0 0-.128 2.309c.481.827 1.382 1.318 2.338 1.273s1.807-.618 2.208-1.487a2.76 2.76 0 0 0-.328-2.28c-.441-.635-1.076-1.11-1.81-1.354a1.23 1.23 0 0 1 .684 0 2.85 2.85 0 0 1 1.51 1.069 3.22 3.22 0 0 1 .527 2.736 3.02 3.02 0 1 1-5.415-2.508 2.85 2.85 0 0 1 1.425-1.211c.4-.129.656-.086.656-.057zm2.166-18.497c-.705.317-1.289.851-1.667 1.525-.374.71-.42 1.547-.128 2.294a2.55 2.55 0 0 0 4.546-.214 2.76 2.76 0 0 0-.328-2.28 3.52 3.52 0 0 0-1.81-1.354 1.42 1.42 0 0 1 .684 0 2.85 2.85 0 0 1 1.51 1.083 3.02 3.02 0 1 1-4.9.228 2.85 2.85 0 0 1 1.425-1.225c.412-.128.668-.086.668-.057z"/></g><g class="F"><path d="M787.763 292.346l.527.314c-3.019-2.249-6.873-3.058-10.541-2.213s-6.78 3.259-8.511 6.602c-.641 1.226-1.012 2.85 0 3.862.84.699 2.025.807 2.978.271a9.79 9.79 0 0 0 2.479-2 21.2 21.2 0 0 1 14.25-5.7"/><path d="M852.8 285.663a7.01 7.01 0 0 0 6.142 5.7c2.708 0 5.7-.513 7.994.855 3.135 1.824 3.62 6.042 4.133 9.633 1.2 8.351 4.759 16.844 11.728 21.589a8.18 8.18 0 0 0 4.489 1.682c1.671.052 3.174-1.013 3.677-2.608a73.95 73.95 0 0 0-5.828-4.588c-4.588-2.993-6.64-8.821-8.194-14.093-1.112-3.719-1.824-7.709-3.577-11.186-3.42-6.812-8.465-7.652-20.563-6.968"/></g><path d="M854.653 300.056a4.74 4.74 0 0 1 .356-.983l1.169-2.736c.556-1.169 1.026-2.679 1.682-4.389l1.952-5.914a207.03 207.03 0 0 0 7.211-35.269c1.582-13.994 1.781-26.819.7-35.967-.285-2.294-.456-4.375-.869-6.156s-.556-3.377-.969-4.6l-.8-2.85c-.101-.331-.177-.669-.228-1.012a4.47 4.47 0 0 1 .37.969l.926 2.85a41.99 41.99 0 0 1 1.112 4.589c.442 1.8.656 3.876.983 6.17 1.211 9.206 1.1 22.074-.5 36.124-1.356 11.989-3.847 23.822-7.439 35.34-.727 2.209-1.425 4.2-2.066 5.9s-1.211 3.206-1.8 4.361l-1.3 2.693c-.137.307-.301.602-.49.88z" class="B"/><path d="M872.622 270.344a21.22 21.22 0 0 1-1.425-7.638 13.95 13.95 0 0 0-.57-4.674 3.59 3.59 0 0 0-3.734-2.494l-.542 11.543z" class="I"/><path d="M867.421 243.782l-1.9 39.9a1.74 1.74 0 0 1-1.539 1.639l-20.193 2.095c-.489.05-.977-.111-1.34-.443s-.567-.804-.56-1.296l.684-38.475c.008-.831.607-1.538 1.425-1.682l21.375-3.42c.501-.093 1.018.041 1.411.366s.623.807.627 1.316z" class="B"/><path d="M853.385 251.878c.148-.653.759-1.093 1.425-1.026a1.3 1.3 0 0 1 1.112.9 1.51 1.51 0 0 1-.513 1.425c-.452.327-1.054.36-1.539.085a1.27 1.27 0 0 1-.485-1.382z" class="K"/><path d="M858.615 259.572c.47 0 11.585 3.719 11.585 3.719l6.27 4.8a11.06 11.06 0 0 1 1.681 8.322c-.755 5.358-3.035 7.567-8.707 9.975h-11.4l-6.4-3.748a3.56 3.56 0 0 1-1.724-3.605v-.256l-.8-.955c-.513-.606-.609-1.462-.242-2.166h0c.495-.961 1.672-1.342 2.636-.855l7.125 3.648 4.46-.114.428-1.539-6.94-2.309-9.22-5.03c-.58-.319-1.006-.862-1.178-1.501s-.076-1.322.266-1.89h0c.615-1.007 1.864-1.428 2.964-1l8.294 3.263 8.464 2.237-1.71-2.95-10.4-5.415s-1.238-3.173 4.548-2.631z" class="I"/><g fill="#83483f"><path d="M876.47 268.093c-2.278-1.335-4.442-2.856-6.47-4.546h.1l-.427-.143a50.67 50.67 0 0 1-7.823-2.85 54.12 54.12 0 0 1 8.037 2.28l.427.143h0a50.49 50.49 0 0 1 6.156 5.116zM866.125 282.4a7.67 7.67 0 0 1-2.366.926c-1.993.67-4.149.67-6.142 0a24.11 24.11 0 0 1-3.035-1.425l-2.38-1.34c-.766-.382-1.479-.861-2.123-1.425.82.207 1.607.529 2.337.955l2.451 1.211a32.19 32.19 0 0 0 2.978 1.425 10.15 10.15 0 0 0 5.8.171c.811-.238 1.64-.404 2.48-.498z"/></g><g class="B"><path d="M836.1 298.987c-.188-.291-.346-.602-.47-.926l-1.211-2.736c-1.012-2.38-2.451-5.843-4.076-10.175a277.29 277.29 0 0 1-10.631-34.571c-1.531-6.47-2.73-13.015-3.591-19.608-.328-3.05-.713-5.942-.812-8.664l-.242-3.947c-.085-1.268 0-2.48 0-3.634a60.65 60.65 0 0 1 .2-6.256c0-.912.1-1.767.157-2.565s.2-1.5.285-2.138l.442-2.95a4.31 4.31 0 0 1 .2-1.012 8.07 8.07 0 0 1 0 1.04c0 .741-.171 1.724-.3 2.964l-.214 2.123c-.072.769-.071 1.653-.1 2.565-.086 1.824-.185 3.919-.086 6.227v3.62c0 1.254.185 2.565.285 3.919.128 2.708.541 5.586.883 8.621.855 6.042 1.967 12.668 3.634 19.523a311.97 311.97 0 0 0 10.388 34.571c1.567 4.346 2.936 7.838 3.862 10.246l1.083 2.779a4.65 4.65 0 0 1 .314.984zm61.346 51.415c-.234.51-.531.988-.883 1.425-.6.883-1.539 2.123-2.75 3.605a81.9 81.9 0 0 1-10.545 10.659 80.94 80.94 0 0 1-12.312 8.55l-4.033 2.081a6.88 6.88 0 0 1-1.553.627 8.1 8.1 0 0 1 1.425-.883l3.9-2.28a97.4 97.4 0 0 0 12.113-8.664 99.17 99.17 0 0 0 10.616-10.431l2.921-3.449a7.66 7.66 0 0 1 1.101-1.24zm-65.75 33.259a14.01 14.01 0 0 1-2.194-.655l-5.857-2.223a132.01 132.01 0 0 1-35.2-21.375l-4.66-4.19a13.28 13.28 0 0 1-1.6-1.639 13.02 13.02 0 0 1 1.781 1.425 164.78 164.78 0 0 0 4.8 4 152.88 152.88 0 0 0 35.07 21.375l5.7 2.437a14 14 0 0 1 2.16.845zm29.128-276.096c1.641-.979 2.748-2.652 3.007-4.546.233-1.895-.419-3.792-1.767-5.144-1.026-1.04-2.423-1.7-3.392-2.85a20.85 20.85 0 0 1-1.881-3.021 12.47 12.47 0 0 0-9.676-5.786c-3.941-.211-7.823 1.025-10.915 3.477-1.121 1.081-2.443 1.933-3.89 2.508a16.83 16.83 0 0 1-4.489.114c-3.639.038-6.983 2.008-8.779 5.172a10.22 10.22 0 0 0 .058 10.19c-4.126 1.418-6.589 5.647-5.785 9.935s4.631 7.338 8.991 7.165a18.78 18.78 0 0 0 7.225-2.18 134.21 134.21 0 0 1 29.327-9.22"/></g><path d="M820.295 170.508a31.35 31.35 0 0 1-8.023-19.95c-.228-7.3.983-16.416 5.543-22.131-3.135-3.434-1.8-7.225.484-11.272s6.27-6.8 10.545-8.821c6.234-3.015 13.029-4.695 19.95-4.931 5.7-.214 13.153.784 13.894 4.859.586 2.252-.193 4.64-1.995 6.113a27.93 27.93 0 0 1 10.46 6.341c7.011 6.8 9.719 13.637 8.735 21.247s-2.651 13.523-7.239 18.311" class="H"/><path d="M868.078 169.151c.8-.792 1.777-1.383 2.85-1.724h-.2a4.03 4.03 0 0 1 .6-.085 2.85 2.85 0 0 1 2.166.356h0a5.2 5.2 0 0 1 2.722 2.565 6.14 6.14 0 0 1-.969 6.256c-1.069 1.639-3.047 2.439-4.955 2.003s-3.343-2.014-3.595-3.955a5.77 5.77 0 0 1 1.381-5.416z" class="C"/><path d="M824.913 201.929l-4.517-65.194a5.7 5.7 0 0 1 5.159-5.7l30.271-7.272c9.662-.9 15.946 11.072 16.445 20.777.542 10.787.784 23.969-.584 31.992-2.764 16.131-15.034 18.069-15.034 18.069l.1 9.733-11.163 30.329h0z" class="I"/><g class="B"><path d="M866.58 157.996a2.08 2.08 0 0 1-2.023 2.066 2 2 0 0 1-2.123-1.9 2.07 2.07 0 0 1 2.037-2.034 1.98 1.98 0 0 1 2.109 1.867zm2.737-6.626c-.257.271-1.81-.912-4.047-.941s-3.876 1.083-4.118.8.157-.6.869-1.112a5.7 5.7 0 0 1 3.306-.983 5.56 5.56 0 0 1 3.22 1.083c.67.54.898 1.025.77 1.153zm-23.627 6.626a2.08 2.08 0 0 1-2.024 2.066 2 2 0 0 1-1.461-.504 1.99 1.99 0 0 1-.662-1.396c0-1.125.899-2.043 2.024-2.066a1.98 1.98 0 0 1 2.123 1.9zm1.682-6.484c-.257.271-1.81-.912-4.047-.926s-3.876 1.069-4.118.8.157-.613.869-1.126a5.7 5.7 0 0 1 3.306-.969 5.56 5.56 0 0 1 3.22 1.083c.684.526.913 1.024.77 1.138zm7.908 16.644c1.18-.358 2.402-.564 3.634-.613.57 0 1.112-.157 1.211-.542a2.85 2.85 0 0 0-.356-1.7l-1.639-4.361c-2.266-6.2-3.89-11.3-3.634-11.4s2.28 4.874 4.546 11.072l1.567 4.375a3.28 3.28 0 0 1 .257 2.237c-.169.405-.516.71-.94.826a3.65 3.65 0 0 1-.969.128 14.9 14.9 0 0 1-3.676-.029z"/></g><g fill="#83483f"><path d="M856.729 194.607a41.17 41.17 0 0 1-21.575-6.028s5.4 11.543 21.589 10.217zm-1.834-21.149c-1.004-1.503-2.681-2.419-4.489-2.451a3.6 3.6 0 0 0-2.964 1.553 3.28 3.28 0 0 0 3.619 4.959 8.18 8.18 0 0 0 3.306-2c.295-.22.539-.502.712-.827a1.1 1.1 0 0 0 0-1.126"/></g><g class="B"><path d="M848.696 169.624c.37 0 .342 2.394 2.394 4.147s4.631 1.51 4.646 1.838-.584.47-1.667.484c-1.42 0-2.794-.505-3.876-1.425a5.24 5.24 0 0 1-1.853-3.477c-.085-.997.199-1.581.356-1.567zm-.341-24.14c-.228.6-2.451.285-5.059.57s-4.745.969-5.087.428c-.157-.271.214-.841 1.083-1.425 2.327-1.427 5.18-1.705 7.738-.755.954.432 1.424.897 1.325 1.182zm20.221-.583c-.4.5-1.924 0-3.776-.086s-3.42.3-3.762-.242c-.157-.257.1-.755.784-1.226a5.2 5.2 0 0 1 3.078-.8 5.27 5.27 0 0 1 3.007 1.055c.64.529.84 1.128.669 1.299z"/></g><g class="H"><path d="M857.93 128.413s-15.162-.513-26.975 16.388c-7.781 11.144-9.633 25.28-9.633 25.28l-5.344-27.075 4.617-12.212 10.588-5.7 19.95-.741 7.439 3.848"/><path d="M828.176 129.254c24.225-5.358 43.42 3.007 46.612 22.016l5.144-12.369-12.284-15.376-13.68-3.833-27.774 3.662z"/></g><path d="M817.66 168.256a7.54 7.54 0 0 1 3.078-1.853h-.233c.21-.049.425-.078.641-.085.799-.202 1.645-.063 2.337.385h0c1.258.532 2.273 1.512 2.85 2.75a6.54 6.54 0 0 1-1.04 6.726c-1.158 1.727-3.261 2.561-5.288 2.096s-3.557-2.132-3.846-4.191a6.24 6.24 0 0 1 1.501-5.828z" class="C"/><g class="D"><path d="M823.53 159.735a2.39 2.39 0 0 1-1.054-.413c-2.349-1.413-3.504-4.192-2.85-6.854l.713-2.579c.214-.853-.011-1.755-.6-2.408a9.06 9.06 0 0 0-2.323-1.51 6.97 6.97 0 0 1-2.18-1.753c-.989-1.248-1.566-2.771-1.653-4.361a6.57 6.57 0 0 1 .527-3.078c.121-.365.327-.697.6-.969-.528 1.271-.757 2.646-.67 4.019.15 1.465.73 2.854 1.667 3.99a6.48 6.48 0 0 0 2.023 1.582 9.22 9.22 0 0 1 2.494 1.625 3.29 3.29 0 0 1 .755 2.978c-.2.969-.556 1.81-.769 2.608a5.8 5.8 0 0 0 .456 4.275 6.47 6.47 0 0 0 1.9 2.266c.58.368.993.525.964.582zm-3.591-32.961c-.491 1.195-.757 2.47-.784 3.762.019 1.387.419 2.743 1.154 3.919a14.39 14.39 0 0 0 3.776 3.434 6.66 6.66 0 0 1 1.867 2.123 4.67 4.67 0 0 1 .47 2.622 33.14 33.14 0 0 0-.627 4.275 3.71 3.71 0 0 0 .912 2.522c.47.47.869.527.841.6s-.1 0-.285 0c-.266-.07-.514-.197-.727-.371a3.86 3.86 0 0 1-1.211-2.693 29.1 29.1 0 0 1 .485-4.275 4.12 4.12 0 0 0-.428-2.28c-.43-.75-1.012-1.4-1.71-1.91a14.25 14.25 0 0 1-3.89-3.634 7.87 7.87 0 0 1-1.1-4.275 7.04 7.04 0 0 1 .67-2.85 2.66 2.66 0 0 1 .584-.969zm16.787 11.815a.67.67 0 0 1-.67.142 1.42 1.42 0 0 1-.684-.456c-.229-.298-.349-.665-.342-1.04 0-.826.442-1.667.5-2.508a2.46 2.46 0 0 0-1.6-2.095 6.85 6.85 0 0 1-2.579-1.967 5.48 5.48 0 0 1-1.04-2.451 3.37 3.37 0 0 1 .285-2.394 12.72 12.72 0 0 0 .171 2.309 5.7 5.7 0 0 0 1.055 2.166 6.96 6.96 0 0 0 2.422 1.753 4.79 4.79 0 0 1 1.425 1.083 2.31 2.31 0 0 1 .513 1.625c-.128 1.083-.627 1.81-.627 2.479a1.21 1.21 0 0 0 .641 1.254c.288.155.502.041.53.1zm4.845-13.055c.124.008.243.052.342.128a1.14 1.14 0 0 1 .285.941c-.102.431-.245.851-.428 1.254a2.6 2.6 0 0 0 0 1.425 5.62 5.62 0 0 0 1.3 2.294c.47.556.755.912.684.983s-.442-.171-1.012-.656a4.77 4.77 0 0 1-1.624-2.479c-.129-.574-.09-1.172.114-1.724a9.92 9.92 0 0 0 .527-1.126 1.2 1.2 0 0 0-.188-1.04zm24.325-8.364a1.25 1.25 0 0 1-.271.641 14.9 14.9 0 0 0-.969 1.582 3.33 3.33 0 0 0-.185 2.537 13.76 13.76 0 0 1 .713 3.392 6.17 6.17 0 0 1-1.054 3.392 5.87 5.87 0 0 1-2.18 1.881c-.767.47-1.678.648-2.565.5a12.31 12.31 0 0 0 2.337-.912c1.753-.992 2.84-2.845 2.85-4.859-.084-1.109-.299-2.204-.641-3.263-.239-.971-.08-1.997.442-2.85a14.15 14.15 0 0 1 1.154-1.425c.184-.459.369-.645.369-.616zm11.301 11.514c.086.114-.727.47-1.054 1.653-.157.613-.47 1.354-.713 2.123-.22.907-.53 1.79-.926 2.636a5.26 5.26 0 0 1-4.275 2.679c-.725.099-1.461-.074-2.066-.485a13.78 13.78 0 0 0 2.024 0c1.582-.199 2.977-1.134 3.762-2.522a18.69 18.69 0 0 0 .941-2.508c.285-.841.627-1.425.841-2.095a2.61 2.61 0 0 1 .955-1.268c.286-.184.486-.241.511-.213zm1.88 16.217c-.027.33-.145.646-.342.912a3.49 3.49 0 0 1-4.275 1.054c-.542-.285-.77-.6-.727-.656a6.97 6.97 0 0 0 2.85.256c1.611-.312 2.338-1.666 2.494-1.566zm-27.431-30.411a10.77 10.77 0 0 0-1.425 1.525c-.9 1.348-1.086 3.049-.5 4.56a6.17 6.17 0 0 1 .869 2.85 3.99 3.99 0 0 1-.94 2.223c-.883 1.04-1.639 1.425-1.667 1.34s.57-.584 1.3-1.625a3.6 3.6 0 0 0 .7-1.967 6.09 6.09 0 0 0-.869-2.494c-.389-.928-.483-1.953-.271-2.936a5.45 5.45 0 0 1 1.012-2.166c.85-1.139 1.791-1.381 1.791-1.31zm-15.49 11.358c-.185-.085.342-1.51.385-3.335s-.371-3.292-.185-3.349a6.41 6.41 0 0 1-.2 6.683zm-11.2-1.767a1.9 1.9 0 0 0 .285-.484 2.34 2.34 0 0 0 .157-1.425c-.214-1.268-1.425-2.693-2.479-4.517a7.9 7.9 0 0 1-.94-2.85c-.103-.841.045-1.695.428-2.451a2.61 2.61 0 0 1 1.181-1.213c.371-.157.6-.114.613 0s-.2.1-.5.3a2.95 2.95 0 0 0-.869 1.183 5.7 5.7 0 0 0 .67 4.788c.969 1.724 2.223 3.263 2.351 4.76a2.35 2.35 0 0 1-.385 1.653c-.256.241-.498.298-.512.256zm15.518-6.983a2.29 2.29 0 0 1 .356-.5 2.31 2.31 0 0 0 .727-1.24 3.35 3.35 0 0 0-1.04-1.852c-.584-.641-1.425-1.24-2.138-1.967-.839-.646-1.428-1.562-1.667-2.594a4.15 4.15 0 0 1 .641-2.437 5.29 5.29 0 0 1 1.425-1.767 11.9 11.9 0 0 1-.955 1.981 4.06 4.06 0 0 0-.456 2.152 4.39 4.39 0 0 0 1.453 2.18c1.425 1.34 3.192 2.651 3.206 4.361-.142.591-.511 1.102-1.026 1.425-.31.187-.498.286-.526.258zm15.019-2.379c.432-.378.744-.873.9-1.425.117-.605.052-1.231-.185-1.8a13.59 13.59 0 0 0-1.154-2.081c-.48-.708-.805-1.509-.955-2.351a3.14 3.14 0 0 1 .5-2.08c.6-1.069 1.425-1.254 1.425-1.14a3.92 3.92 0 0 0-1.069 1.425 2.85 2.85 0 0 0-.313 1.753 6.28 6.28 0 0 0 .926 2.109 11.4 11.4 0 0 1 1.154 2.223 3.32 3.32 0 0 1 0 2.123c-.142.472-.445.88-.855 1.154-.174.175-.359.175-.374.09z"/></g><g class="B"><path d="M860.681 114.32a10.93 10.93 0 0 1-1.838 0l-5.016.086a54.82 54.82 0 0 0-16.074 3.377 81.38 81.38 0 0 0-14.678 7.538l-4.275 2.708c-.498.374-1.034.695-1.6.955a9.43 9.43 0 0 1 1.425-1.154l4.118-2.85a73.89 73.89 0 0 1 14.692-7.766 51.6 51.6 0 0 1 16.3-3.221l5.044.114c.639.013 1.275.084 1.9.214zm-38.404 14.193h.171l.456-.171.727-.313 1.026-.371c2.18-.73 4.437-1.209 6.726-1.425a41.65 41.65 0 0 1 10.2.242c1.909.256 3.9.655 5.956 1.126s4.147 1.012 6.256 1.71c8.55 2.651 15.034 8.165 17.927 13.21 1.155 1.991 2.01 4.143 2.536 6.384a22.86 22.86 0 0 1 .385 1.838 2.23 2.23 0 0 0 .1.485c.028.143 0 .157 0 .157a1.6 1.6 0 0 0 0-.171v-.485a17.86 17.86 0 0 0-.314-1.853c-.479-2.28-1.306-4.472-2.451-6.5-2.85-5.13-9.434-10.759-18.027-13.424a62.31 62.31 0 0 0-6.313-1.71c-2.052-.47-4.047-.855-5.971-1.112a39.9 39.9 0 0 0-10.288-.157 27.76 27.76 0 0 0-6.755 1.61l-1.012.4-.727.342-.428.214z"/><path d="M853.884 129.154h-.527a14.93 14.93 0 0 0-1.5.171 21.61 21.61 0 0 0-5.287 1.653 38.36 38.36 0 0 0-13.965 11.614 58.42 58.42 0 0 0-5.272 8.55 74.7 74.7 0 0 0-3.42 7.467 38.48 38.48 0 0 0-1.639 5.3l-.285 1.425a1.7 1.7 0 0 0 0 .513 1.97 1.97 0 0 0 .142-.513 7.86 7.86 0 0 1 .342-1.425 43.56 43.56 0 0 1 1.753-5.23 72.74 72.74 0 0 1 3.477-7.41 60.24 60.24 0 0 1 5.258-8.55 39.03 39.03 0 0 1 13.78-11.6 22.56 22.56 0 0 1 5.2-1.753l1.425-.228zM659.192 437.488c-5.785-2.921-8.693-9.733-9.12-16.217s1.14-12.825 1.981-19.323.841-13.338-2.38-18.981-10.588-9.305-16.459-6.541l-16.473 11.714a80.1 80.1 0 0 1 4.574 22.586c.328 5.771.086 11.842 2.665 17.015 3.648 7.3 12.042 10.958 20.093 12.284l-3.035-4.2c5.409 3.509 12.198 4.132 18.155 1.667z"/><path d="M604.485 356.803c7.125-.741 13.181 2.38 18.882 6.754a36.51 36.51 0 0 1 11.785 39.829 28.1 28.1 0 0 1-14.92 16.259c-9.5 4.061-21.147 1.667-28.956-5.087s-11.856-17.342-11.571-27.674a34.2 34.2 0 0 1 6.712-19.95 26.02 26.02 0 0 1 18.069-10.189"/><path d="M623.011 382.14c-.855-2.779-.256-5.7-.484-8.65-.484-6.37-5.244-11.771-10.958-14.606-5.315-2.651-12.027-2.594-18.753-.884a25.05 25.05 0 0 0-12.284 6.9c-4.349 4.729-6.138 11.272-4.8 17.556l32.576-2.579a36.01 36.01 0 0 0 9.362 7.125c1.026.541 2.176.801 3.335.755 1.184-.056 2.223-.805 2.651-1.91a6.4 6.4 0 0 0-.641-3.705z"/></g><path d="M591.532 366.867l27.788 7.809a5.3 5.3 0 0 1 4.589 5.472l-4.275 60.976a19 19 0 0 1-4.731 11.229l-2.85 3.292c-3.097 3.546-7.775 5.288-12.437 4.633s-8.678-3.62-10.677-7.882a6.4 6.4 0 0 1-.541-1.639c0-.556-.185-.926-.185-1.425-.281-3.084-.238-6.188.128-9.263l.128-7.638c0 .043-11.4-2.209-13.424-17.257-.983-7.481-.285-19.694.613-29.669.698-8.951 6.939-19.824 15.874-18.638z" class="E"/><g class="B"><path d="M579.077 397.255c-.033 1.042.77 1.92 1.81 1.981a1.84 1.84 0 0 0 2.024-1.681 1.91 1.91 0 0 0-1.8-1.981c-.494-.051-.988.098-1.371.414s-.623.773-.667 1.268zm-1.054-5.297c.242.257 1.724-.784 3.791-.727s3.563 1.14 3.791.9-.114-.57-.77-1.069a5.27 5.27 0 0 0-3.021-1.026c-1.076-.037-2.135.272-3.021.883-.642.497-.888.925-.77 1.039zm19.579 6.043a1.94 1.94 0 0 0 1.81 2 1.84 1.84 0 0 0 2.024-1.682c.041-1.043-.758-1.929-1.8-1.995a1.85 1.85 0 0 0-2.038 1.681zm.059-5.264c.228.257 1.71-.784 3.776-.727s3.562 1.14 3.791.883-.114-.57-.77-1.069a5.2 5.2 0 0 0-3.021-1.012 5.07 5.07 0 0 0-3.021.883c-.643.477-.871.918-.755 1.042zm-7.227 15.281c-1.084-.366-2.209-.596-3.349-.684-.527-.071-1.012-.2-1.1-.556-.027-.546.112-1.088.4-1.553l1.667-3.99c2.323-5.7 4.019-10.331 3.791-10.417s-2.308 4.432-4.617 10.089l-1.61 4c-.351.628-.467 1.36-.328 2.066.142.382.453.677.841.8.293.087.595.139.9.157a12.42 12.42 0 0 0 3.405.088z"/></g><g class="J"><path d="M588.354 432.457a38.09 38.09 0 0 0 20.219-4.817s-5.33 10.246-20.292 8.436zm2.821-19.422c.826-.986 2.103-1.478 3.377-1.3.924.102 1.765.581 2.323 1.325a2.15 2.15 0 0 1 .1 2.465 2.51 2.51 0 0 1-2.736.613 7.6 7.6 0 0 1-2.594-1.653c-.237-.166-.436-.379-.584-.627-.158-.232-.158-.537 0-.769"/></g><g class="B"><path d="M596.492 409.614c-.342 0-.4 2.223-2.365 3.762s-4.275 1.225-4.375 1.539.513.456 1.525.513c1.315.05 2.607-.364 3.648-1.169a4.86 4.86 0 0 0 1.838-3.149c.113-.94-.086-1.496-.271-1.496zm1.68-22.999c.185.57 2.266.356 4.674.713s4.375 1.069 4.7.584c.157-.242-.171-.784-.955-1.34a7.8 7.8 0 0 0-3.463-1.325 7.71 7.71 0 0 0-3.677.342c-.908.327-1.35.755-1.279 1.026zm-19.309-3.749c.356.485 1.8 0 3.506 0s3.164.4 3.505-.086c.157-.228 0-.713-.684-1.169a4.8 4.8 0 0 0-2.85-.855c-1.017-.01-2.012.293-2.85.869-.57.586-.769 1.07-.627 1.241zm49.591-4.744c-2.351-8.764-14.35-21.29-23.427-21.076l-14.849 8.009c.729 5.069 4.174 9.333 8.978 11.11 2.522.883 5.586 1.24 7.011 3.506s.385 5.543 1.724 7.923c1.867 3.306 7.339 3.406 8.678 6.94.6 1.539.171 3.334.784 4.874.812 2.052 5.771 4.816 7.909 4.275s2.294-4.133 3.064-5.985a9.89 9.89 0 0 0 .613-6.626c-.727-4.3.641-8.761-.485-12.95z"/></g><path d="M618.992 405.154c0-1.126 1.425-3.719 2.494-3.862 2.95-.385 8.251 0 8.108 7.481-.2 10.217-10.431 7.895-10.431 7.61s-.285-7.382-.171-11.229z" class="E"/><path d="M622.326 412.563a3.8 3.8 0 0 0 .47.285c.431.17.909.17 1.34 0a4.39 4.39 0 0 0 2.109-3.9c.043-.877-.108-1.753-.442-2.565a2.08 2.08 0 0 0-1.311-1.425.94.94 0 0 0-1.069.47c-.142.285-.071.5-.128.513s-.214-.185-.128-.6c.063-.253.208-.479.413-.641.293-.197.65-.279 1-.228a2.45 2.45 0 0 1 1.824 1.61 6.07 6.07 0 0 1 .556 2.85c-.1 2.066-1.2 3.962-2.679 4.361-.559.15-1.156.039-1.625-.3-.33-.202-.33-.401-.33-.43z" class="J"/><path d="M636.834 392.301c.358-.973.551-1.999.57-3.035.386-5.04-.945-10.063-3.776-14.25-.53-.89-1.21-1.68-2.01-2.337 1.949 2.862 3.448 6.005 4.446 9.32a34.94 34.94 0 0 1 .77 10.302z" class="H"/><path d="M593.341 362.175c-1.211 4.09-7.866 8.992-10.844 12.041-5.7 5.814-6.868 7.795-7.709 21.575-2.194-4.916-3.79-9.7-3.249-15.062a22.3 22.3 0 0 1 6.854-14.25 17.34 17.34 0 0 1 14.948-4.275" class="B"/><g class="C"><path d="M633.723 378.335a10.48 10.48 0 0 1-1.753.314l-2.08.228-2.779.143a50.05 50.05 0 0 1-7.239-.4 56.91 56.91 0 0 1-8.664-1.91 54.68 54.68 0 0 1-8.208-3.392c-2.144-1.111-4.202-2.381-6.156-3.8a27.07 27.07 0 0 1-2.195-1.7 19.96 19.96 0 0 1-1.6-1.425c-.454-.38-.874-.8-1.254-1.254a9.03 9.03 0 0 1 1.428 1.083l1.639 1.282 2.237 1.625a54.39 54.39 0 0 0 6.17 3.648 53.88 53.88 0 0 0 16.687 5.244 52.74 52.74 0 0 0 7.125.513h2.764a10.14 10.14 0 0 0 2.081-.128c.596-.078 1.197-.102 1.797-.071zm.527 7.381a5.46 5.46 0 0 1-1.211.2 28.55 28.55 0 0 1-3.306.214 40.98 40.98 0 0 1-20.976-5.558c-.984-.548-1.936-1.152-2.85-1.81a4.8 4.8 0 0 1-.94-.784c0-.085 1.425.9 3.919 2.223a48.35 48.35 0 0 0 10.064 3.976c3.525.925 7.144 1.442 10.787 1.539 2.779 0 4.503-.109 4.513 0zm-4.043 26.264c-.086-.086 1.026-1.211 2.251-3.392a38.17 38.17 0 0 0 3.577-9.12 48.3 48.3 0 0 0 1.511-9.7v-4.09a3.78 3.78 0 0 1 .271 1.083 19.51 19.51 0 0 1 .214 3.021c-.006 3.335-.446 6.654-1.311 9.875a32.78 32.78 0 0 1-3.833 9.206 15.07 15.07 0 0 1-1.852 2.408c-.486.495-.785.751-.828.709zm-12.398 135.319l-65.551 9.519c-24.639 6.983-50.588 9.02-77.734 6.669l98.725 46.057 39.644.613s12.07 0 14.25-10.531 4.446-42.594 4.446-42.594-7.951-6.812-13.78-9.733z"/></g><g class="F"><path d="M617.624 574.915c1.073 6.592 1.459 13.278 1.154 19.95a19.75 19.75 0 0 0 4.859-16.573c-.57-3.249-1.924-6.812-.228-9.633 1.14-1.9 4.147-4.061 3.705-6.227 0 0-2.636 0-5.03-.1l-5.9-.2a21.19 21.19 0 0 1 1.055 13.039"/></g><g class="E"><path d="M587.243 443.573l32.747-2.765 4.731.485-20.891 17.171-10.688 3.719-9.377-4.389-2.266-6.3zm-38.747 36.978l-12.326 39.1-26.434 37.338 16.7 12.041 28.9-35.654 9.676-44.19z"/></g><path d="M543.153 473.554s12.013-18.126 15.675-21.375c4.389-3.89 12.326-6.9 12.326-6.9l16.117-1.724s-9.975 11.4 1.425 12.825 36.025-15.088 36.025-15.088 17.228 3.221 21.489 5.786 15.091 9.106 14.521 26.477v13.951h-32.7l-6.84 52.384-16.516 9.975-47.382 9.077c-2.85.527-.727-72.291-.727-72.291s-11.432-5.459-13.413-13.097z" class="B"/><g class="E"><path d="M560.908 544.575l60.82-9.134 6.27-47.938h30.453l-8.821 42.423c-2.294 12.426-10.816 29.042-15.376 32.177s-76.951-3.163-76.951-3.163z"/><path d="M526.366 550.122c.363.866 1.213 1.429 2.152 1.425.197-.003.392-.027.584-.071 1.354-.342 1.425-3.05 1.425-3.05l6.413-.627s7.923 5.871 10.631 9.59 10.388 1.354 10.388 1.354l3.491-13.367-11-11.4s.67.67 0-1.354-4.4-1.525-4.4-1.525c-.513-1.012-2.85-1.525-2.85-1.525l-10.346.513c-2.12.094-4.085 1.141-5.344 2.85l-4.835 6.687s-2.622 4.788-2.323 5.971a2.04 2.04 0 0 0 2.294 1.5s.3 3.292 1.14 3.463c.88.015 1.755-.135 2.579-.442z"/></g><g class="J"><path d="M548.839 541.812c0 .114-1.425-.1-3.577-.157-2.855-.044-5.703.301-8.465 1.026a29.86 29.86 0 0 0-4.446 1.553c-1.283.627-2.608 1.112-3.064 1.995a1.24 1.24 0 0 0 0 1.226c.165.302.419.547.727.7.527.256.884.128.9.2s-.342.256-1 0a1.98 1.98 0 0 1-.941-.755 1.65 1.65 0 0 1-.142-1.625 3.42 3.42 0 0 1 1.425-1.354 18.91 18.91 0 0 1 1.867-.969 26.16 26.16 0 0 1 4.517-1.653c2.824-.746 5.75-1.03 8.664-.841a12.11 12.11 0 0 1 3.535.654zm.287 6.598c0 .185-4.189-.256-9.334-.3s-9.32.328-9.334.128a10.22 10.22 0 0 1 2.707-.47 59.57 59.57 0 0 1 13.267.114 9.98 9.98 0 0 1 2.694.528zm-22.689 1.455a6.45 6.45 0 0 1 0-1.112 25 25 0 0 1 .2-3.007c.085-.693.223-1.379.413-2.052a6.57 6.57 0 0 1 1.154-2.18 14.55 14.55 0 0 1 4.1-3.676 19.64 19.64 0 0 1 5.073-2.166 18.53 18.53 0 0 1 4.474-.385 26.33 26.33 0 0 1 2.992.214 3.19 3.19 0 0 1 1.1.185 34.13 34.13 0 0 1-4.09.071 18.49 18.49 0 0 0-4.275.513 20.18 20.18 0 0 0-4.874 2.123c-1.531.906-2.876 2.096-3.961 3.506a7.67 7.67 0 0 0-1.6 3.919l-.706 4.047zm16.088-17.646c0 .085-1.553 0-4.018.157s-6.17.128-8.55 3.249c-2.247 2.294-4.165 4.888-5.7 7.709a20.07 20.07 0 0 0-1.225 3.776 2.64 2.64 0 0 1 0-1.1c.12-.983.385-1.944.784-2.85a30.44 30.44 0 0 1 5.7-7.952 11.12 11.12 0 0 1 2.123-1.9 7.31 7.31 0 0 1 2.494-.969 22.45 22.45 0 0 1 4.389-.413 15.42 15.42 0 0 1 4 .285z"/><path d="M545.462 555.079c-.212-.15-.408-.322-.584-.513l-1.625-1.5a72.78 72.78 0 0 0-6.441-5.073h.143l-6.413.67.228-.256c-.015.519-.087 1.035-.214 1.539a2.85 2.85 0 0 1-.827 1.425 1.58 1.58 0 0 1-.869.342 2.38 2.38 0 0 1-.9 0 2.65 2.65 0 0 1-1.525-.969 2.3 2.3 0 0 1-.242-.4v-.1h0l.371.157h0l-.2.071c-.276.096-.557.176-.841.242-.29.074-.585.127-.883.157h-.485c-.2-.003-.396-.057-.57-.157a1.88 1.88 0 0 1-.57-.884c-.112-.292-.198-.593-.257-.9a15.2 15.2 0 0 1-.3-1.824l.356.285c-.89.131-1.779-.242-2.309-.969-.272-.376-.398-.838-.356-1.3a5.38 5.38 0 0 1 .313-1.211c.571-1.534 1.252-3.025 2.038-4.46h0l2.551-3.506q.812-1.14 1.625-2.223c.502-.781 1.09-1.503 1.753-2.152.696-.635 1.516-1.12 2.408-1.425.86-.258 1.753-.388 2.65-.385l9.747-.442h.071a9.53 9.53 0 0 1 1.667.556 2.85 2.85 0 0 1 1.425 1.126l-.342-.128c1.091-.422 2.32-.272 3.278.4a4.1 4.1 0 0 1 1.425 2.708l-.071-.142 7.581 7.78 2.052 2.138a6.31 6.31 0 0 1 .67.784c-.273-.209-.531-.437-.77-.684l-2.137-2.052-7.738-7.624h0v-.085a3.66 3.66 0 0 0-1.282-2.351c-.842-.565-1.909-.678-2.85-.3l-.228.085-.114-.214a2.48 2.48 0 0 0-1.154-.869 8.99 8.99 0 0 0-1.553-.5h.086l-9.747.513c-.839-.006-1.675.114-2.479.356a6.27 6.27 0 0 0-2.18 1.24 12.68 12.68 0 0 0-1.653 2.052l-1.624 2.223-2.551 3.505h0a34 34 0 0 0-2.024 4.346c-.132.344-.223.703-.271 1.069-.031.319.055.639.242.9a1.81 1.81 0 0 0 1.61.584h.328v.313a14.1 14.1 0 0 0 .271 1.753c.064.516.26 1.007.57 1.425a.44.44 0 0 0 .256 0 1.92 1.92 0 0 0 .4 0 5.55 5.55 0 0 0 .8-.142 7.32 7.32 0 0 0 .8-.214h.2l.371.171h0v.086c.053.113.12.218.2.313.282.391.698.665 1.169.77a1.71 1.71 0 0 0 .712 0c.212-.009.416-.084.584-.214.596-.735.905-1.662.869-2.608v-.228h.214l6.427-.57h.086c2.232 1.611 4.355 3.367 6.355 5.258l1.553 1.582c.271.181.515.4.724.65z"/></g><path d="M556.05 467.398a18.04 18.04 0 0 1 0 3.349v8.051c0 3.151.285 5.985.442 8.037.164 1.108.212 2.231.143 3.349-.348-1.068-.568-2.173-.656-3.292a74.39 74.39 0 0 1-.67-8.066c-.088-2.704-.036-5.41.157-8.108a13.38 13.38 0 0 1 .584-3.32z" class="C"/><g class="D"><path d="M660.261 471.303a5.1 5.1 0 0 1-1.054.128l-3.021.228-11.144.727-36.765 2.095-36.78 1.867-11.158.485-3.035.1a7.52 7.52 0 0 1-1.055 0 5.62 5.62 0 0 1 1.055-.143l3.021-.228 11.144-.713 36.765-2.095 36.78-1.881 11.144-.484 3.035-.086c.356-.034.713-.034 1.069 0zm-34.5 31.265c0 .214-15.547 1.04-34.742 1.853l-34.785 1.1c-.015-.2 15.547-1.04 34.756-1.852l34.771-1.101zm-4.147 27.602a2.57 2.57 0 0 1-.67.114l-1.9.2-7.025.627-23.128 2.152-23.085 2.565-7 .812-1.91.185c-.222.04-.448.04-.67 0a3.88 3.88 0 0 1 .655-.157l1.881-.328 6.968-1.055c5.9-.826 14.051-1.853 23.085-2.85s17.228-1.568 23.157-1.938l7.04-.385h1.924a1.92 1.92 0 0 1 .67.057zm-66.591-60.292a8.15 8.15 0 0 1-3.306-.755c-1.753-.613-3.121-1.254-3.05-1.425a8.15 8.15 0 0 1 3.306.755 7.61 7.61 0 0 1 3.05 1.425zm26.79-18.995a152.31 152.31 0 0 1-21.019.727 72.17 72.17 0 0 1 10.488-.741 72.98 72.98 0 0 1 10.531.014zm66.164-2.552c0 .214-7.5.328-16.729.285s-16.716-.257-16.716-.47 7.482-.328 16.716-.271 16.729.257 16.729.456z"/></g><g class="C"><path d="M627.798 464.947a8.56 8.56 0 0 1 0 1.724l-.228 4.745c-.242 4.033-.884 9.676-1.425 16.117l-.385-.385h6.128l20.363.114 6.17.114c.763-.021 1.526.026 2.28.142-.744.116-1.498.164-2.251.143l-6.156.114-20.349.114h-6.555v-.385c.541-6.47 1.283-12.084 1.639-16.1l.456-4.717a9.35 9.35 0 0 1 .313-1.739zM511.347 567.862l-54.621-17.3c-22.472-7.282-37.179.086-41.824 8.123-6.028 10.431 8.422 30.78 13.979 35.454 16.473 13.866 44.731 15.675 44.731 15.675h0l101.575-.2-29.656-40.071z"/></g><path d="M515.736 584.079c-16.931 1.968-34.085-.365-49.876-6.783a65.8 65.8 0 0 0-8.322-3.107 24.5 24.5 0 0 0-8.55-.6 8.55 8.55 0 0 0-6.056 2.736c-2.038 2.679-.983 6.47.143 9.633 1.311 3.705 2.679 7.5 5.258 10.46 3.021 3.477 7.4 5.458 11.785 6.84 8.55 2.708 17.628 3.477 26.619 3.833l30.866-1.7z" class="G"/><g class="B"><path d="M511.176 605.24a9.35 9.35 0 0 1-2.195-2.337 19.71 19.71 0 0 1-3.406-14.763c.13-1.063.443-2.095.926-3.05.114 0-.242 1.2-.47 3.121a21.73 21.73 0 0 0 3.335 14.435l1.81 2.594zm-55.049-31.037a4.36 4.36 0 0 1 .47.841 13.2 13.2 0 0 1 .827 2.465 15.99 15.99 0 0 1-5.045 15.675c-.65.576-1.351 1.091-2.095 1.539-.527.3-.855.427-.869.385s1.112-.769 2.65-2.251c4.142-3.912 6.01-9.662 4.959-15.262-.441-2.109-.997-3.349-.897-3.392z"/><path d="M510.834 589.208c0 .185-1.083.385-2.437.442a5.02 5.02 0 0 1-2.451-.214c0-.185 1.083-.385 2.423-.442a5.06 5.06 0 0 1 2.465.214zm-.927 8.437c.071.157-.542.57-1.425.556s-1.425-.4-1.425-.556.67-.086 1.425-.086 1.354-.085 1.425.086z"/></g><path d="M617.424 565.268c-2.408-6.84-2.85-16.886-17.7-21.717s-26.133 4.432-33.776 7.638-49.462 26.149-49.462 26.149-7.866 14.036-5.7 20.235 12.426 12.326 12.426 12.326h46.755l34.514-.4a138.5 138.5 0 0 0 8.037-15.276l.413-2.009c.076-1.566 6.902-20.063 4.493-26.946z" class="C"/><g class="B"><path d="M591.518 600.894a1.34 1.34 0 0 1-.342.641 8.29 8.29 0 0 1-1.539 1.425 38.67 38.67 0 0 1-6.612 3.705c-1.582.745-3.209 1.388-4.873 1.924a35.63 35.63 0 0 1-5.9 1.268 111.32 111.32 0 0 1-13.737.542l-24.923.456c-2.526.013-5.052-.101-7.567-.342a19.37 19.37 0 0 1-2.038-.285c-.24-.023-.476-.081-.7-.171 0-.071.983.114 2.765.2l7.538.128c6.37 0 15.176-.484 24.924-.641a119.11 119.11 0 0 0 13.666-.47c1.962-.247 3.901-.648 5.8-1.2a43.09 43.09 0 0 0 4.859-1.824 45.09 45.09 0 0 0 6.655-3.491 9.24 9.24 0 0 0 1.582-1.268c.328-.44.399-.682.442-.597zm-68.23 9.049s-.214-.1-.613-.328l-1.738-1.083a41.24 41.24 0 0 1-6.156-4.888 19.2 19.2 0 0 1-3.477-4.489 10.33 10.33 0 0 1-.684-6.655 55.67 55.67 0 0 1 5.7-15.248h0l26.035-14.165 15.005-7.923 7.98-3.933 8.123-4.09a45.68 45.68 0 0 1 12.084-4.546 29.26 29.26 0 0 1 6.284-.57 28.13 28.13 0 0 1 6.128.884 29.06 29.06 0 0 1 10.716 5.116 21.68 21.68 0 0 1 3.89 4.2 24.46 24.46 0 0 1 2.508 4.945c.655 1.7 1.14 3.42 1.61 5.087a39.6 39.6 0 0 1 1.339 4.945 32.65 32.65 0 0 1-.8 9.562c-.6 2.978-1.34 5.771-2.081 8.365l-1.1 3.762a32.21 32.21 0 0 0-.912 3.463h0l-.413 2.009h0a49.1 49.1 0 0 1-5.372 11.657 20.4 20.4 0 0 1-2.85 3.577l.171-.242.556-.67a29.73 29.73 0 0 0 1.952-2.765 50.26 50.26 0 0 0 5.187-11.657h0c.769-.627.613-1.254.4-2.009h0a32.15 32.15 0 0 1 .912-3.577l1.069-3.762c.713-2.608 1.425-5.372 2.009-8.336.708-3.082.963-6.25.755-9.405a40.31 40.31 0 0 0-1.354-4.859c-.47-1.667-.955-3.363-1.6-5.03a24.4 24.4 0 0 0-2.465-4.817 20.48 20.48 0 0 0-3.79-4.076 28.5 28.5 0 0 0-10.488-4.973c-3.964-1.046-8.118-1.144-12.127-.285a44.65 44.65 0 0 0-11.913 4.489c-2.736 1.425-5.372 2.921-8.165 4.1s-5.344 2.579-7.952 3.9l-15.005 7.895-26.07 14.077.1-.1a56.24 56.24 0 0 0-5.7 15.077c-.518 2.15-.307 4.41.6 6.427a19.14 19.14 0 0 0 3.363 4.446 45.27 45.27 0 0 0 6.028 4.959l1.71 1.154a5.97 5.97 0 0 1 .611.385z"/></g><path d="M599.384 592.6s13.937 1.667 12.7 8.479-5.786 9.12-5.786 9.12l-37.863.071s22.542-1.567 30.949-17.67z" class="G"/><g class="B"><path d="M600.738 589.294c-.001.665-.147 1.321-.427 1.924a14.9 14.9 0 0 1-2.251 4.275 11.3 11.3 0 0 1-5.33 4.075c1.758-1.319 3.372-2.819 4.817-4.475a40.18 40.18 0 0 0 3.191-5.799z"/><path d="M595.907 591.959a9.28 9.28 0 0 1-1.354 4.859 10.35 10.35 0 0 1-3.035 4c-.143-.114 1.225-1.881 2.465-4.275s1.739-4.614 1.924-4.584zm17.769 16.33c-.1 0 .784-1.781 1.881-4.7a50.06 50.06 0 0 0 2.736-23.983l-.769-5a5.26 5.26 0 0 1 .442 1.3 29.84 29.84 0 0 1 .784 3.648 44.7 44.7 0 0 1-2.764 24.225 29.94 29.94 0 0 1-1.6 3.363 5.32 5.32 0 0 1-.71 1.147z"/></g><g class="F"><path d="M605.796 588.924c-.1-.912-.47-2-1.425-2.18s-1.853 1.04-2.309 2.066c-4.8 11.115-20.592 19.751-32.633 20.877a110.6 110.6 0 0 0 17.485-1.425c4.928-.751 9.547-2.864 13.338-6.1 3.812-3.306 5.862-8.202 5.544-13.238z"/></g><path d="M513.556 573.818a79.06 79.06 0 0 1-13.139-5.7c2.305.641 4.548 1.49 6.7 2.536a40.99 40.99 0 0 1 6.439 3.164z" class="B"/><g opacity=".2"><path d="M527.05 567.961q-27.075-5.173-54.279-9.191l-13.523 4.275c3.791 7.054 11.272 11.543 19.067 13.409s15.917 1.425 23.9.684c8.778-.812 17.784-2.038 25.422-6.441.584-.342 1.24-.841 1.168-1.511s-1-1.068-1.755-1.225z"/></g><path d="M438.282 514.253l22.715 50.26c.939 2.082 3.003 3.428 5.287 3.448l66.249.869 8.351-4.5-13.082-.955-20.349-48.864c-.663-1.551-2.176-2.567-3.862-2.594l-63.484-.47a1.98 1.98 0 0 0-1.824 2.807z" class="G"/><g class="B"><path d="M438.286 514.253c-.111-.183-.179-.388-.2-.6a2.01 2.01 0 0 1 .613-1.738c.356-.33.815-.527 1.3-.556h5.814l26.591.085 18.525.1h13.039a4.6 4.6 0 0 1 2.651 1.112 5.87 5.87 0 0 1 1.525 2.451l1.083 2.593 18.981 45.458-.314-.228 12.64.926h.442l1.268.1-1.126.6-8.351 4.5h-.214l-50.26-.7-11.215-.157c-1.824 0-3.577 0-5.387-.114-1.838-.205-3.486-1.225-4.489-2.779-2.964-6.213-5.429-11.97-7.823-17.243l-11.115-24.852-2.978-6.74-.755-1.753c-.157-.4-.228-.613-.228-.613s.114.2.3.584l.812 1.724 3.107 6.683 11.315 24.767 7.866 17.1a5.56 5.56 0 0 0 4.061 2.479c1.7.085 3.534 0 5.33.1l11.215.128 50.246.613h-.171l8.351-4.5.142.7h-.442l-12.64-.926h-.228l-.086-.214-18.91-45.5-1.083-2.579c-.243-.842-.705-1.604-1.339-2.209a3.79 3.79 0 0 0-2.28-.969h-2.668l-10.317-.1-18.525-.171-26.577-.328h-5.811a1.94 1.94 0 0 0-1.2.484 2 2 0 0 0-.641 1.624 3.41 3.41 0 0 0 .156.658z"/><path d="M525.853 568.746a4.06 4.06 0 0 1-.3-.556l-.755-1.625-2.665-6.014-8.465-19.95-8.066-20.164-2.28-6.185-.584-1.7a2.4 2.4 0 0 1-.157-.6 5.87 5.87 0 0 1 .285.556l.684 1.653 2.479 6.1 8.251 20.079 8.279 20.064 2.465 6.1.655 1.682c.185.457.203.546.174.56z"/></g><path d="M484.758 538.621a3.25 3.25 0 0 1-3.249 3.249 3.25 3.25 0 0 1-3.249-3.249 3.25 3.25 0 0 1 5.546-2.297 3.25 3.25 0 0 1 .952 2.297z" class="D"/><use xlink:href="#C" class="C"/><path d="M170.489 580.91c-1.197.08-2.139 1.052-2.18 2.251a2.25 2.25 0 0 0 2.209 2.18c1.267-.093 2.261-1.124 2.309-2.394a2.35 2.35 0 0 0-2.565-2.009" class="G"/><g class="B"><path d="M156.837 597.34l1.183-4.517 53.41 13.951s2.252 1.653 1.568 3.349zm31.42-10.117c-.071.271-1.425.085-3.021.656s-2.537 1.568-2.75 1.425.541-1.653 2.423-2.323 3.464-.001 3.348.242zm5.346 3.776c0 .271-1.3.47-2.494 1.425s-1.739 2.109-2.009 2.038-.1-1.667 1.425-2.85 3.12-.884 3.078-.613zm1.738 7.809c-.271 0-.342-1.425.712-2.85s2.465-1.653 2.522-1.425-.912.869-1.753 1.995-1.21 2.308-1.481 2.28zm-6.07-18.368c-.171.228-1.339-.442-2.921-.684s-2.85 0-2.978-.3 1.3-.983 3.149-.67 2.935 1.512 2.75 1.654z"/></g><g class="F"><use xlink:href="#C"/></g><path d="M175.291 564.18l-.527 29.683s30 10.5 30.424 16l-57.585 1.04-1.083-46.284z" class="C"/><path d="M156.909 591.698a2.35 2.35 0 0 0-1.582 2.708 2.25 2.25 0 0 0 2.679 1.582 2.48 2.48 0 0 0 1.653-2.85 2.34 2.34 0 0 0-2.964-1.339" class="G"/><g class="B"><path d="M147.603 610.907v-4.66l55.191.727s2.579 1.069 2.323 2.85zm28.088-17.357c0 .285-1.425.442-2.85 1.425s-2.081 2.123-2.337 2.009.128-1.739 1.8-2.85 3.444-.869 3.387-.584zm6.084 2.394c.071.271-1.14.769-2.081 1.981s-1.183 2.465-1.425 2.451-.5-1.582.7-3.064 2.792-1.639 2.806-1.368zm3.562 7.168c-.256 0-.67-1.34 0-2.85s1.995-2.194 2.109-1.952-.67 1.069-1.226 2.351-.598 2.408-.883 2.451zm-10.274-16.345c-.114.271-1.425-.1-3.007 0s-2.85.656-2.964.413 1.026-1.254 2.85-1.425 3.249.798 3.121 1.012zM140.82 314.261l-6.612 41.112 4.817 33.958.214 7.4 4.888 36.238c-.271 6.883-1.667 35.625-2.722 41.568-1.3 7.353 2.309 111.807 2.309 111.807l33.217-1.425 12.512-156.581c-.042-1.696 17.27-115.872 17.27-115.872z"/><path d="M224.782 320.603s5.258 114.628 3.52 128.779c-1.425 11.4-36.238 134.607-36.238 134.607l-30.467-5.235 11.984-132.968 4.275-132.526z"/></g><path d="M201.609 366.032c.2 0-3.933 33.759-9.22 75.341s-15.276 143.528-15.461 143.5 9.5-101.988 14.792-143.585l9.889-75.256z" class="C"/><path d="M192.463 123.836c-1.896-3.422-3.405-7.044-4.5-10.8a17.57 17.57 0 0 1 .6-11.4c.941-2.081 2.423-3.9 3.164-6.056 1.026-2.978.613-6.47 2.451-9.02 2.85-3.976 9.02-3.05 13.466-5.13 3.449-1.625 5.871-5.13 9.5-6.3 3.192-1.012 6.655 0 9.719 1.283s6.07 2.978 9.377 3.42a70.16 70.16 0 0 0 7.125 0c2.398-.108 4.747.702 6.569 2.266 1.682 1.7 2.038 4.817.214 6.356 4.175-.7 8.094 3.449 8.037 7.681s-3.235 7.937-7.125 9.69a25.15 25.15 0 0 1-12.369 1.511c-11.927-.926-23.9-5.458-32.006-14.25" class="B"/><path d="M195.028 108.916l-8.123 59.024c-1.425 9.975 11.115 28.5 21.2 29.327h0c9.419.826 12.64-5.957 13.908-15.319.613-4.446 1.126-17.357 1.225-17.813 0 0 15.219.656 18.34-14.065 1.511-7.125 3.434-22.016 5.03-35.526 1.685-14.509-8.049-27.882-22.373-30.738l-1.425-.285c-15.513-2.164-26.044 9.806-27.782 25.395z" class="E"/><path d="M223.214 164.137c-6.814-1.377-13.09-4.681-18.083-9.519 0 0 2.85 12.369 17.827 13.979z" class="J"/><g class="B"><path d="M239.986 127.1a2.15 2.15 0 0 1-2.451 1.71 2.05 2.05 0 0 1-1.8-2.323 2.15 2.15 0 0 1 2.451-1.724 2.05 2.05 0 0 1 1.8 2.337zm2.01-5.942c-.328.228-1.682-1.283-3.947-1.724s-4.161.356-4.275 0 .257-.584 1.1-.969a5.9 5.9 0 0 1 3.548-.371 5.7 5.7 0 0 1 3.064 1.724c.525.699.653 1.24.51 1.34zm-23.156 2.279a2.15 2.15 0 0 1-2.451 1.724 2.05 2.05 0 0 1-1.724-2.337 2.15 2.15 0 0 1 2.451-1.71 2.05 2.05 0 0 1 1.724 2.323zm.769-6.312c-.313.228-1.667-1.283-3.947-1.724s-4.147.356-4.275 0 .271-.584 1.1-.969c1.116-.486 2.355-.615 3.548-.371a5.7 5.7 0 0 1 3.007 1.824c.582.599.724 1.14.567 1.24zm4.874 18.468c1.268-.162 2.551-.162 3.819 0 .584 0 1.154 0 1.339-.328a3.09 3.09 0 0 0 0-1.8l-.841-4.745c-1.112-6.755-1.81-12.269-1.539-12.312s1.425 5.4 2.537 12.155l.755 4.76c.223.773.168 1.6-.157 2.337-.248.388-.667.632-1.126.656a3.72 3.72 0 0 1-1.012 0 15.59 15.59 0 0 1-3.775-.723zm-6.968.242c.371 0-.114 2.522 1.639 4.688s4.432 2.423 4.389 2.765-.684.371-1.8.171a6.3 6.3 0 0 1-3.691-2.166c-.893-1.095-1.332-2.491-1.226-3.9.104-1.058.504-1.558.689-1.558zm4.46-27.474c-.342.57-2.551-.171-5.273-.385s-5.03.086-5.273-.541c-.1-.3.385-.8 1.425-1.226a9.25 9.25 0 0 1 8.023.7c.913.597 1.255 1.181 1.098 1.452zm20.491 6.099c-.5.428-1.952-.413-3.833-.812s-3.534-.356-3.791-.969c-.114-.285.242-.755 1.04-1.1a5.29 5.29 0 0 1 3.278-.228 5.5 5.5 0 0 1 2.85 1.653c.566.63.684 1.214.456 1.456z"/></g><path d="M194.058 120.16c-.242-.157-9.548-5.03-11.243 5.13s8.849 9.761 8.921 9.462 2.322-14.592 2.322-14.592z" class="E"/><path d="M189.274 130.32c-.165.077-.337.139-.513.185a1.8 1.8 0 0 1-1.325-.2c-1.221-1.057-1.767-2.697-1.425-4.275.114-.876.426-1.714.912-2.451a2.1 2.1 0 0 1 1.553-1.14c.307-.024.606.105.8.345s.257.559.169.855c0 .029.242-.143.228-.57a1.14 1.14 0 0 0-.285-.713c-.251-.25-.586-.397-.94-.413a2.48 2.48 0 0 0-2.109 1.268c-.582.803-.954 1.739-1.083 2.722-.285 2.052.442 4.147 1.838 4.817.528.247 1.139.247 1.667 0 .453-.188.538-.401.513-.43z" class="J"/><g class="B"><path d="M249.535 100.837c-1.753 3.762-10.7 5.2-17.271 3.221-6.056-1.824-8.251-5.7-12.1-9.02-2.437-2.123-2.437-2.123-6.413-2.522-3.221-.342-5.8 2.85-8.237 4.988 1.354 8.08-2.223 16.06-5.7 23.456a4.05 4.05 0 0 1-1.664 2.05c-1.425.684-3.021-.385-3.848-1.681a12.7 12.7 0 0 1-1.425-7.125 41.98 41.98 0 0 1 3.363-16.345c2.21-5.19 5.903-9.612 10.616-12.711a27.22 27.22 0 0 1 20.194-3.349 33.53 33.53 0 0 1 17.7 10.631 19.71 19.71 0 0 1 4.774 8.365m-20.609 24.594c.1-.799.258-1.589.47-2.366a9.8 9.8 0 0 1 3.591-5.216 9.56 9.56 0 0 1 8.978-1.3c3.717 1.369 6.186 4.91 6.186 8.871a9.45 9.45 0 0 1-6.186 8.87 9.52 9.52 0 0 1-8.978-1.3 9.76 9.76 0 0 1-3.591-5.216c-.413-1.425-.385-2.366-.47-2.351a1.78 1.78 0 0 0 0 .627c-.007.609.06 1.217.2 1.81a9.76 9.76 0 0 0 3.548 5.6c2.159 1.668 4.9 2.397 7.603 2.02a10.15 10.15 0 0 0 6.761-4.02c1.289-1.752 1.99-3.867 2-6.042a10.42 10.42 0 0 0-2-6.056c-1.206-1.625-2.868-2.855-4.774-3.534-3.27-1.203-6.929-.632-9.676 1.511a9.76 9.76 0 0 0-3.548 5.7c-.14.589-.208 1.194-.2 1.8a1.84 1.84 0 0 0 .085.584zm-24.126-4.203a17.01 17.01 0 0 1 .47-2.366 9.76 9.76 0 0 1 3.591-5.216 9.56 9.56 0 0 1 8.978-1.3c3.717 1.369 6.186 4.91 6.186 8.871s-2.469 7.502-6.186 8.871a9.52 9.52 0 0 1-8.978-1.3 9.76 9.76 0 0 1-3.591-5.216c-.413-1.425-.385-2.366-.47-2.351a1.78 1.78 0 0 0 0 .627c-.007.609.06 1.217.2 1.81a9.76 9.76 0 0 0 3.548 5.6 10.17 10.17 0 1 0 0-16.088c-1.817 1.388-3.088 3.37-3.591 5.6a7.37 7.37 0 0 0-.2 1.8 1.91 1.91 0 0 0 .043.659z"/><path d="M224.64 121.585c.1.2 1.425-.4 2.85 0s2.252 1.653 2.437 1.539 0-.427-.285-.94a3.56 3.56 0 0 0-1.924-1.425c-.776-.242-1.613-.207-2.366.1-.527.27-.712.569-.712.726zm-33.488-3.006c2.389.38 4.813.485 7.225.314a32.19 32.19 0 0 0 7.225-.513 31.89 31.89 0 0 0-7.239-.314 32 32 0 0 0-7.211.513z"/></g><path d="M255.363 242.44l-25.323 16.73.385 6.626 6.6 13.937s3.05 2.85 12.027-6.185 20.306-27.075 20.306-27.075z" class="E"/><path d="M297.999 207.599a2.1 2.1 0 0 0-1.653-1.227l-12.4-1.653a3.92 3.92 0 0 0-3.021.912l-35.523 30.511 1.61 1.553 13.324 3.22 37.905-32.775z" class="B"/><path d="M288.152 210.135c.28.293.738.324 1.055.071.368-.174.532-.609.37-.983-.28-.293-.738-.324-1.055-.071-.398.256-.565.699-.37.983z" class="D"/><path d="M298.241 208.155a14.07 14.07 0 0 1-2.437-.185l-6.6-.77-4.56-.57a2.61 2.61 0 0 0-2.152.556l-2.038 1.767-9.077 7.809-16.6 14.093-5.087 4.2c-.602.531-1.251 1.008-1.938 1.425a14.25 14.25 0 0 1 1.739-1.681l4.945-4.375 16.459-14.25 9.12-7.781 2.052-1.738c.743-.601 1.712-.846 2.651-.67l4.546.656 6.584 1.012c.81.104 1.61.271 2.394.5z" class="C"/><path d="M285.345 214.539s-1.126-.556-2.693 2.522-6.284 11.828-6.284 11.828l-5.315-5.059-8.08-1.183s-2.152 1.1-1.14 2.309 5.7 3.463 5.7 3.463l2.166 6.256-9.02-7.966s-3.748-.071-3.32 2.337 5.6 11.044 5.6 11.044l-5.13-1.867-5.159-5.486s-1.924-.456-1.667 1.425 5.073 9.519 5.073 9.519l6.769 6.014s4.389.855 5.144-.285a14.72 14.72 0 0 0 1.425-2.85s2.451 0 3.178-.955a7.04 7.04 0 0 0 .955-2.85s3.392 1.625 4.389-.242a23.23 23.23 0 0 0 1.81-7.51c0-1.639 5.928-15.333 5.914-15.8s2.193-4.992-.315-4.664z" class="E"/><g class="J"><path d="M268.26 249.423c-.73.184-1.493.184-2.223 0a14.35 14.35 0 0 1-9.234-5.13c-.855-1.083-1.211-1.867-1.126-1.924a22.51 22.51 0 0 0 5.7 4.631c3.605 1.939 6.916 2.152 6.883 2.423zm-1.069-3.334c-.171.143-1.425-.983-2.494-2.608s-1.8-3.135-1.6-3.249 1.154 1.169 2.28 2.765 2.013 2.935 1.814 3.092zm6.027-5.619c-.171.143-1.425-.955-2.38-2.636a6.14 6.14 0 0 1-1.283-3.306c.228-.086 1 1.254 1.995 2.85s1.854 2.939 1.668 3.092zm5.871-4.229a21.17 21.17 0 0 1-1.425-3.62 19.58 19.58 0 0 1-1.425-3.577c.171-.142 1.425 1.2 2.251 3.263a6.37 6.37 0 0 1 .6 3.933z"/></g><g class="C"><path d="M244.59 246.402l16.687 15.01s-26.106 28.5-34.2 34.827 2.579-43.035 2.579-43.035z"/><path d="M187.974 157.21l-6.94 9.6-26.99 9.975-12.241 91.8-9.975 82.1s18.824 3.349 23.484-3.491c5.444-7.966 47.966-.784 50.788 1.425l5.529-18.525 4.46 21.4s7.852 1.781 11.956-9.975l-1.739-40.727 5.216-84.518c-.313-11.073-7.795-41.838-7.795-41.838l-2.85 9.077-24.311-20.734z"/><path d="M161.839 174.026s-17.727 0-23.47 32.775-13.979 68.1-9.733 81.226 20.9 51.158 20.9 51.158l22.8-8.237-9.377-59.637 10.844-58.426s1.403-36.465-11.964-38.859z"/></g><path d="M181.775 343.773l-9.376-12.711-19.423 6.983c-.377 4.488-.334 9.001.128 13.481.684 6.455 1.8 13.381 1.8 13.381l22.971-12.255c.513 2.55 1.267 5.045 2.252 7.453 1.283 2.679 5.7-.157 5.7-.157z" class="E"/><g class="B"><path d="M173.868 213.03a5.23 5.23 0 0 1-.157 1.04c-.157.684-.3 1.724-.527 3.049l-2.095 11.685-7.809 42.636v-.1l9.448 59.623v.267l-.271.1-22.8 8.251-.3.1-.128-.285-7.253-16.844-12.269-30.353-1.3-3.748c-.214-.627-.328-1.282-.5-1.924a11.3 11.3 0 0 1-.356-1.938 32.5 32.5 0 0 1-.342-3.89v-3.848a135.57 135.57 0 0 1 1.268-14.891c1.254-9.647 2.964-18.725 4.517-27.218l4.4-23.627c.613-3.619 1.34-7.125 2.052-10.289l1.34-4.646c.428-1.497 1.083-2.85 1.582-4.275 1.823-4.687 4.618-8.935 8.2-12.464 2.284-2.216 5.042-3.883 8.066-4.874a13.67 13.67 0 0 1 2.408-.527h.841l-.826.1a16.31 16.31 0 0 0-2.38.584c-2.971 1.042-5.676 2.726-7.923 4.931a35.62 35.62 0 0 0-8.023 12.44c-.5 1.425-1.04 2.765-1.539 4.275s-.869 3.035-1.311 4.617c-.7 3.235-1.425 6.641-2 10.274l-4.275 23.641c-1.425 8.493-3.206 17.57-4.446 27.2a134.63 134.63 0 0 0-1.24 14.82v3.8a34.2 34.2 0 0 0 .342 3.819 10.83 10.83 0 0 0 .356 1.9c.157.613.271 1.24.47 1.867l1.3 3.719c3.662 9.89 7.909 19.95 12.269 30.31l7.253 16.829-.428-.171 22.8-8.237-.214.371-9.305-59.651v-.086l8.023-42.594 2.252-11.657.6-3.035c.143-.736.23-1.076.23-1.076zm47.095-29.514a6.94 6.94 0 0 1-.527 1.209l-1.667 3.32-5.953 11.545-.242.456-.3-.413a175.31 175.31 0 0 0-7.239-9.277 182.39 182.39 0 0 0-14.364-15.376l-4.66-4.361c-.602-.496-1.165-1.039-1.681-1.624.655.425 1.274.901 1.853 1.425a111.64 111.64 0 0 1 4.831 4.2c5.193 4.784 10.054 9.917 14.549 15.362 2.693 3.221 5.13 6.4 7.225 9.348h-.527l6.185-11.4 1.81-3.235a6.1 6.1 0 0 1 .712-1.183zm5.985 4.888c.228 0 1.425 4.09.556 9.647l-.143.983-.485-.9-.755-1.511c-1.3-2.85-1.981-5.629-2.693-7.538a28.8 28.8 0 0 1-1.154-3.092 10.26 10.26 0 0 1 1.61 2.921l2.85 7.424a12.07 12.07 0 0 0 .727 1.425l-.627.086a31.03 31.03 0 0 0 .313-6.74l-.199-2.705zm-4.817-.157v5.586c0 3.605-.214 8.807-.57 15.233-.67 12.825-2.237 30.567-3.848 50.132l-4.275 50.089-1.425 15.162-.4 4.133a8.14 8.14 0 0 1-.128 1.069 1 1 0 0 1-.071.356v-1.453c0-1 .157-2.38.285-4.133l1.154-15.191 4.09-50.1 4.047-50.1.784-15.2c0-1.753.114-3.149.143-4.147v-1.069a1.28 1.28 0 0 1 .214-.367zm9.633 31.92c.185 0-.826 18.169-2.28 40.542l-2.964 40.485c-.199-.015.841-18.155 2.28-40.542l2.964-40.485zm-53.466-21.959c-.114 0-.114-1.639-.77-4.161a20.38 20.38 0 0 0-13.153-14.25c-2.451-.869-4.09-1.012-4.076-1.126a3.28 3.28 0 0 1 1.154 0c1.044.115 2.075.33 3.078.641a19.55 19.55 0 0 1 13.466 14.663 17.5 17.5 0 0 1 .385 3.121c.03.373.002.748-.084 1.112z"/></g><g class="F"><path d="M227.39 295.664a74.27 74.27 0 0 0 2.508-42.465l-2.551 42.75"/><path d="M172.924 218.101l-9.975 55.276 9.448 57.685 5.558 8.237c-4.843-38.728-8.89-82.666-5.031-121.198z"/></g><path d="M177.813 352.851c.1.157-5.871 3.506-13.31 7.467s-13.538 7.04-13.637 6.869 5.871-3.52 13.324-7.467 13.538-7.04 13.623-6.869z" class="C"/><g class="D"><path d="M167.81 247.647c0 .114-1.909-.77-4.988-2.024a108.81 108.81 0 0 0-12.238-4.276 113.11 113.11 0 0 0-12.668-2.679l-5.33-.827a6.8 6.8 0 0 1 1.425 0c.926 0 2.28.143 3.933.314a85.61 85.61 0 0 1 12.825 2.494c4.194 1.163 8.291 2.649 12.255 4.446 1.511.7 2.722 1.3 3.548 1.753.448.207.865.476 1.238.799zm-2.308 46.279c-.346.243-.725.435-1.126.57l-3.221 1.24a79.51 79.51 0 0 1-10.973 2.992 81.82 81.82 0 0 1-11.3 1.425c-1.425.071-2.622.1-3.449.071a3.82 3.82 0 0 1-1.254-.1 41.8 41.8 0 0 1 4.674-.5c2.85-.271 6.854-.77 11.186-1.625s8.18-1.924 10.958-2.765a37.04 37.04 0 0 1 4.5-1.311zm12.112-90.303c-.128.086-1.268-1.71-3.634-4.147a35.78 35.78 0 0 0-4.475-3.919 40.24 40.24 0 0 0-6.27-3.705 38.59 38.59 0 0 0-6.869-2.366c-1.915-.465-3.864-.775-5.828-.926-3.392-.214-5.5 0-5.515-.071.461-.152.94-.243 1.425-.271a13.72 13.72 0 0 1 1.753-.157 20.93 20.93 0 0 1 2.323 0 32.49 32.49 0 0 1 6.014.741 34.1 34.1 0 0 1 13.381 6.2 32.12 32.12 0 0 1 4.46 4.09q.756.862 1.425 1.8a12.2 12.2 0 0 1 1.026 1.425 6.14 6.14 0 0 1 .784 1.311zm35.198 107.831a8 8 0 0 1-1.8-.171l-4.859-.784c-4.1-.7-9.747-1.753-15.96-3.035s-11.813-2.551-15.846-3.534l-4.774-1.211a7.99 7.99 0 0 1-1.724-.556c.601.036 1.197.127 1.781.271l4.831.983 15.889 3.32 15.9 3.249 4.817 1.012a8.63 8.63 0 0 1 1.745.456zm3.862-51.073c0 .2-11.4-.484-25.536-1.539s-25.508-2.08-25.493-2.28 11.4.484 25.55 1.539 25.493 2.067 25.479 2.28zm3.691-44.973a7.94 7.94 0 0 1-1.838.242l-5.03.313c-4.275.228-10.132.385-16.616.356s-12.369-.285-16.616-.556l-5.03-.37a9.58 9.58 0 0 1-1.838-.256c.616-.072 1.237-.072 1.853 0l5.03.157 16.6.328c6.482.043 12.341 0 16.6-.128l5.03-.1a11.4 11.4 0 0 1 1.855.014zm-30.282-41.981a19.52 19.52 0 0 1-3.406.8c-5.478 1.139-10.819 2.858-15.932 5.13a19.95 19.95 0 0 1-3.221 1.34 14.25 14.25 0 0 1 2.993-1.81 51.8 51.8 0 0 1 7.838-3.221c2.689-.87 5.443-1.523 8.237-1.952a13.55 13.55 0 0 1 3.491-.287zm28.529 16.099a8.29 8.29 0 0 1-1.311-1.126l-3.42-3.221c-2.85-2.722-6.883-6.455-11.4-10.445s-8.735-7.51-11.8-9.975l-3.636-2.974a7.78 7.78 0 0 1-1.283-1.169c.505.266.982.581 1.425.941.912.641 2.209 1.6 3.776 2.85 3.164 2.408 7.439 5.871 11.984 9.875s8.55 7.795 11.3 10.631c1.425 1.425 2.508 2.565 3.249 3.392.416.365.789.776 1.112 1.225zm13.053 26.709a29.84 29.84 0 0 1-5.244-.157c-1.749.049-3.498-.052-5.23-.3 1.712-.489 3.503-.64 5.273-.442a13.88 13.88 0 0 1 5.2.9zm-3.363 47.523c-1.756.331-3.551.413-5.33.242a19.47 19.47 0 0 1-5.315-.485 19.28 19.28 0 0 1 5.33-.256 19.58 19.58 0 0 1 5.315.5zm-1.653 47.496c-2.173.775-4.424 1.315-6.712 1.61-2.246.542-4.544.838-6.854.884a31.99 31.99 0 0 1 6.712-1.61 32.97 32.97 0 0 1 6.854-.884zm22.216-37.192c-.757-1.026-1.42-2.118-1.981-3.263l-4.674-7.895-5.045-7.681c-.78-1.007-1.472-2.079-2.066-3.206a17.26 17.26 0 0 1 2.494 2.85l5.244 7.581 4.517 8.051a17.74 17.74 0 0 1 1.511 3.563z"/></g><path d="M519.804 229.064l138.986-53.463 36.033 93.673-138.986 53.463z" class="L"/><g fill="#777c88"><path d="M659.659 176.602a10.06 10.06 0 0 1-.812 1.753l-2.565 4.874-9.662 17.841-32.4 58.753-.257.485-.527-.171-1.283-.4-64.776-20.762-19.575-6.413-5.3-1.81c-.628-.183-1.238-.421-1.824-.712.649.094 1.288.247 1.91.456l5.358 1.553 19.708 6.014 64.908 20.339 1.268.4-.784.328 32.775-58.568 9.975-17.627 2.779-4.76c.318-.553.681-1.079 1.084-1.573z"/><path d="M556.716 323.705c-.356-.128 5.159-16.986 12.312-37.663s13.224-37.335 13.58-37.207-5.159 16.972-12.312 37.649-13.224 37.335-13.58 37.221zm71.636-93.823c.2-.313 15.433 8.45 34.015 19.594s33.516 20.449 33.331 20.762-15.419-8.45-34.015-19.537-33.517-20.491-33.331-20.819z"/></g><rect width="93.338" height="89.234" rx="5.15" x="402.467" y="333.393" class="G"/><g class="L"><path d="M402.467 414.945v-9.391-65.194c.008-3.851 3.132-6.968 6.983-6.968h69.3c5.529 0 15.233-2.18 16.943 5.985l.128 5.159c-2.636 7.225-11.571 11.087-19.109 12.611s-15.518 1.61-22.5 4.845c-6.366 2.991-11.318 8.342-13.808 14.92-2.579 6.911-2.223 14.663-4.816 21.575-4.275 11.543-20.991 18.682-33.118 16.459m93.35-17.628c-7.664-1.974-15.81-.261-22.031 4.631a25.65 25.65 0 0 0-9.59 20.107v.413l20.9.143c12.36.314 11.106-.798 10.721-25.294z"/><circle cx="475.97" cy="377.225" r="7.41"/></g><path d="M447.056 364.401l-3.107-4.033c-.519-.68-1.288-1.124-2.137-1.234s-1.705.124-2.38.65l-4.275 3.221c-2.71 2.101-3.485 5.864-1.824 8.864l.556 1c4.419 7.894 9.974 15.096 16.487 21.375l.827.784c2.473 2.375 6.309 2.593 9.035.513l4.19-3.235a3.22 3.22 0 0 0 .584-4.532l-3.106-4.033a3.22 3.22 0 0 0-4.517-.584l-.826.641c-1.443 1.095-3.479.922-4.717-.4l-.584-.613c-2.261-2.435-4.293-5.073-6.071-7.88l-.442-.713c-.973-1.533-.614-3.555.827-4.66l.826-.641a3.22 3.22 0 0 0 .654-4.49z" class="D"/></g></svg>